<?xml version="1.0" encoding="UTF-8"?>
<svg xmlns="http://www.w3.org/2000/svg" viewBox="0 0 100 100" fill="none" data-glyph="6" data-group="digits" data-centerline="true">
  <path id="stroke-1" d="M 55.5 12.799999999999997 L 47.7 11.5 L 40.9 11.700000000000003" fill="none" stroke="#334155" stroke-width="2.8" stroke-linecap="round" stroke-linejoin="round"/>
  <path id="stroke-2" d="M 26.6 16.900000000000006 L 33.1 13.299999999999997 L 40.4 11.700000000000003" fill="none" stroke="#334155" stroke-width="2.8" stroke-linecap="round" stroke-linejoin="round"/>
  <path id="stroke-3" d="M 12.5 49.2 L 15.6 31.799999999999997 L 18 26.299999999999997 L 21.9 21.099999999999994" fill="none" stroke="#334155" stroke-width="2.8" stroke-linecap="round" stroke-linejoin="round"/>
  <path id="stroke-4" d="M 21.6 49.2 L 27.9 45.1 L 37.8 43.5" fill="none" stroke="#334155" stroke-width="2.8" stroke-linecap="round" stroke-linejoin="round"/>
  <path id="stroke-5" d="M 49.2 47.9 L 44.5 44.8 L 38.3 43.5" fill="none" stroke="#334155" stroke-width="2.8" stroke-linecap="round" stroke-linejoin="round"/>
  <path id="stroke-6" d="M 57 65.1 L 55.5 55.5 L 51.3 49.5" fill="none" stroke="#334155" stroke-width="2.8" stroke-linecap="round" stroke-linejoin="round"/>
  <path id="stroke-7" d="M 19.5 80.7 L 15.4 74.7 L 13 66.9 L 12.8 58.9 L 14.6 53.1" fill="none" stroke="#334155" stroke-width="2.8" stroke-linecap="round" stroke-linejoin="round"/>
  <path id="stroke-8" d="M 51.3 81.5 L 55.5 75 L 57 65.6" fill="none" stroke="#334155" stroke-width="2.8" stroke-linecap="round" stroke-linejoin="round"/>
  <path id="stroke-9" d="M 35.7 88.3 L 28.4 87.2 L 22.9 83.9" fill="none" stroke="#334155" stroke-width="2.8" stroke-linecap="round" stroke-linejoin="round"/>
  <path id="stroke-10" d="M 36.2 88.3 L 43.8 87 L 48.7 83.6" fill="none" stroke="#334155" stroke-width="2.8" stroke-linecap="round" stroke-linejoin="round"/>
  <circle cx="55.5" cy="12.799999999999997" r="3" fill="#dc2626" data-stroke-start="1"/><circle cx="40.9" cy="11.700000000000003" r="2" fill="#16a34a" data-stroke-end="1"/>
  <circle cx="26.6" cy="16.900000000000006" r="3" fill="#dc2626" data-stroke-start="2"/><circle cx="40.4" cy="11.700000000000003" r="2" fill="#16a34a" data-stroke-end="2"/>
  <circle cx="12.5" cy="49.2" r="3" fill="#dc2626" data-stroke-start="3"/><circle cx="21.9" cy="21.099999999999994" r="2" fill="#16a34a" data-stroke-end="3"/>
  <circle cx="21.6" cy="49.2" r="3" fill="#dc2626" data-stroke-start="4"/><circle cx="37.8" cy="43.5" r="2" fill="#16a34a" data-stroke-end="4"/>
  <circle cx="49.2" cy="47.9" r="3" fill="#dc2626" data-stroke-start="5"/><circle cx="38.3" cy="43.5" r="2" fill="#16a34a" data-stroke-end="5"/>
  <circle cx="57" cy="65.1" r="3" fill="#dc2626" data-stroke-start="6"/><circle cx="51.3" cy="49.5" r="2" fill="#16a34a" data-stroke-end="6"/>
  <circle cx="19.5" cy="80.7" r="3" fill="#dc2626" data-stroke-start="7"/><circle cx="14.6" cy="53.1" r="2" fill="#16a34a" data-stroke-end="7"/>
  <circle cx="51.3" cy="81.5" r="3" fill="#dc2626" data-stroke-start="8"/><circle cx="57" cy="65.6" r="2" fill="#16a34a" data-stroke-end="8"/>
  <circle cx="35.7" cy="88.3" r="3" fill="#dc2626" data-stroke-start="9"/><circle cx="22.9" cy="83.9" r="2" fill="#16a34a" data-stroke-end="9"/>
  <circle cx="36.2" cy="88.3" r="3" fill="#dc2626" data-stroke-start="10"/><circle cx="48.7" cy="83.6" r="2" fill="#16a34a" data-stroke-end="10"/>
</svg>
