<?xml version="1.0" encoding="UTF-8"?>
<svg xmlns="http://www.w3.org/2000/svg" viewBox="0 0 100 100" fill="none" data-glyph="3" data-group="digits" data-centerline="true">
  <path id="stroke-1" d="M 7.8 15.900000000000006 L 13 17.700000000000003 L 22.9 13 L 32.6 11.700000000000003" fill="none" stroke="#334155" stroke-width="2.8" stroke-linecap="round" stroke-linejoin="round"/>
  <path id="stroke-2" d="M 47.4 15.900000000000006 L 41.4 12.5 L 33.3 11.700000000000003" fill="none" stroke="#334155" stroke-width="2.8" stroke-linecap="round" stroke-linejoin="round"/>
  <path id="stroke-3" d="M 54.2 27.900000000000006 L 53.1 22.099999999999994 L 49.7 17.700000000000003" fill="none" stroke="#334155" stroke-width="2.8" stroke-linecap="round" stroke-linejoin="round"/>
  <path id="stroke-4" d="M 48.2 41.4 L 53.1 34.900000000000006 L 54.2 28.400000000000006" fill="none" stroke="#334155" stroke-width="2.8" stroke-linecap="round" stroke-linejoin="round"/>
  <path id="stroke-5" d="M 20.1 48.7 L 31.5 48.7" fill="none" stroke="#334155" stroke-width="2.8" stroke-linecap="round" stroke-linejoin="round"/>
  <path id="stroke-6" d="M 33.3 48.7 L 42.2 47.9" fill="none" stroke="#334155" stroke-width="2.8" stroke-linecap="round" stroke-linejoin="round"/>
  <path id="stroke-7" d="M 56.5 68.5 L 55.7 61.7 L 52.1 56.5" fill="none" stroke="#334155" stroke-width="2.8" stroke-linecap="round" stroke-linejoin="round"/>
  <path id="stroke-8" d="M 51.3 81.2 L 55.5 75.3 L 56.5 69" fill="none" stroke="#334155" stroke-width="2.8" stroke-linecap="round" stroke-linejoin="round"/>
  <path id="stroke-9" d="M 28.9 88.3 L 17.2 87 L 7.6 83.3" fill="none" stroke="#334155" stroke-width="2.8" stroke-linecap="round" stroke-linejoin="round"/>
  <path id="stroke-10" d="M 29.4 88.3 L 40.1 87.5 L 48.2 83.6" fill="none" stroke="#334155" stroke-width="2.8" stroke-linecap="round" stroke-linejoin="round"/>
  <circle cx="7.8" cy="15.900000000000006" r="3" fill="#dc2626" data-stroke-start="1"/><circle cx="32.6" cy="11.700000000000003" r="2" fill="#16a34a" data-stroke-end="1"/>
  <circle cx="47.4" cy="15.900000000000006" r="3" fill="#dc2626" data-stroke-start="2"/><circle cx="33.3" cy="11.700000000000003" r="2" fill="#16a34a" data-stroke-end="2"/>
  <circle cx="54.2" cy="27.900000000000006" r="3" fill="#dc2626" data-stroke-start="3"/><circle cx="49.7" cy="17.700000000000003" r="2" fill="#16a34a" data-stroke-end="3"/>
  <circle cx="48.2" cy="41.4" r="3" fill="#dc2626" data-stroke-start="4"/><circle cx="54.2" cy="28.400000000000006" r="2" fill="#16a34a" data-stroke-end="4"/>
  <circle cx="20.1" cy="48.7" r="3" fill="#dc2626" data-stroke-start="5"/><circle cx="31.5" cy="48.7" r="2" fill="#16a34a" data-stroke-end="5"/>
  <circle cx="33.3" cy="48.7" r="3" fill="#dc2626" data-stroke-start="6"/><circle cx="42.2" cy="47.9" r="2" fill="#16a34a" data-stroke-end="6"/>
  <circle cx="56.5" cy="68.5" r="3" fill="#dc2626" data-stroke-start="7"/><circle cx="52.1" cy="56.5" r="2" fill="#16a34a" data-stroke-end="7"/>
  <circle cx="51.3" cy="81.2" r="3" fill="#dc2626" data-stroke-start="8"/><circle cx="56.5" cy="69" r="2" fill="#16a34a" data-stroke-end="8"/>
  <circle cx="28.9" cy="88.3" r="3" fill="#dc2626" data-stroke-start="9"/><circle cx="7.6" cy="83.3" r="2" fill="#16a34a" data-stroke-end="9"/>
  <circle cx="29.4" cy="88.3" r="3" fill="#dc2626" data-stroke-start="10"/><circle cx="48.2" cy="83.6" r="2" fill="#16a34a" data-stroke-end="10"/>
</svg>
