<?xml version="1.0" encoding="UTF-8"?>
<svg xmlns="http://www.w3.org/2000/svg" viewBox="0 0 100 100" fill="none" data-glyph="5" data-group="digits" data-centerline="true">
  <path id="stroke-1" d="M 21.4 12.200000000000003 L 33.1 12" fill="none" stroke="#334155" stroke-width="2.8" stroke-linecap="round" stroke-linejoin="round"/>
  <path id="stroke-2" d="M 33.6 12 L 54.7 12" fill="none" stroke="#334155" stroke-width="2.8" stroke-linecap="round" stroke-linejoin="round"/>
  <path id="stroke-3" d="M 15.6 28.400000000000006 L 16.7 16.900000000000006" fill="none" stroke="#334155" stroke-width="2.8" stroke-linecap="round" stroke-linejoin="round"/>
  <path id="stroke-4" d="M 14.6 41.1 L 15.6 28.900000000000006" fill="none" stroke="#334155" stroke-width="2.8" stroke-linecap="round" stroke-linejoin="round"/>
  <path id="stroke-5" d="M 19.5 45.3 L 29.4 44.3" fill="none" stroke="#334155" stroke-width="2.8" stroke-linecap="round" stroke-linejoin="round"/>
  <path id="stroke-6" d="M 47.4 49.7 L 45.1 47.4 L 40.1 45.3 L 30.2 44.3" fill="none" stroke="#334155" stroke-width="2.8" stroke-linecap="round" stroke-linejoin="round"/>
  <path id="stroke-7" d="M 55.2 65.1 L 53.9 56.8 L 50.5 51.8" fill="none" stroke="#334155" stroke-width="2.8" stroke-linecap="round" stroke-linejoin="round"/>
  <path id="stroke-8" d="M 47.7 82 L 53.6 74.7 L 55.2 65.6" fill="none" stroke="#334155" stroke-width="2.8" stroke-linecap="round" stroke-linejoin="round"/>
  <path id="stroke-9" d="M 27.6 88.3 L 17.2 87 L 7.6 83.3" fill="none" stroke="#334155" stroke-width="2.8" stroke-linecap="round" stroke-linejoin="round"/>
  <path id="stroke-10" d="M 28.1 88.3 L 38.5 87.2 L 46.6 83.1" fill="none" stroke="#334155" stroke-width="2.8" stroke-linecap="round" stroke-linejoin="round"/>
  <circle cx="21.4" cy="12.200000000000003" r="3" fill="#dc2626" data-stroke-start="1"/><circle cx="33.1" cy="12" r="2" fill="#16a34a" data-stroke-end="1"/>
  <circle cx="33.6" cy="12" r="3" fill="#dc2626" data-stroke-start="2"/><circle cx="54.7" cy="12" r="2" fill="#16a34a" data-stroke-end="2"/>
  <circle cx="15.6" cy="28.400000000000006" r="3" fill="#dc2626" data-stroke-start="3"/><circle cx="16.7" cy="16.900000000000006" r="2" fill="#16a34a" data-stroke-end="3"/>
  <circle cx="14.6" cy="41.1" r="3" fill="#dc2626" data-stroke-start="4"/><circle cx="15.6" cy="28.900000000000006" r="2" fill="#16a34a" data-stroke-end="4"/>
  <circle cx="19.5" cy="45.3" r="3" fill="#dc2626" data-stroke-start="5"/><circle cx="29.4" cy="44.3" r="2" fill="#16a34a" data-stroke-end="5"/>
  <circle cx="47.4" cy="49.7" r="3" fill="#dc2626" data-stroke-start="6"/><circle cx="30.2" cy="44.3" r="2" fill="#16a34a" data-stroke-end="6"/>
  <circle cx="55.2" cy="65.1" r="3" fill="#dc2626" data-stroke-start="7"/><circle cx="50.5" cy="51.8" r="2" fill="#16a34a" data-stroke-end="7"/>
  <circle cx="47.7" cy="82" r="3" fill="#dc2626" data-stroke-start="8"/><circle cx="55.2" cy="65.6" r="2" fill="#16a34a" data-stroke-end="8"/>
  <circle cx="27.6" cy="88.3" r="3" fill="#dc2626" data-stroke-start="9"/><circle cx="7.6" cy="83.3" r="2" fill="#16a34a" data-stroke-end="9"/>
  <circle cx="28.1" cy="88.3" r="3" fill="#dc2626" data-stroke-start="10"/><circle cx="46.6" cy="83.1" r="2" fill="#16a34a" data-stroke-end="10"/>
</svg>
