<?xml version="1.0" encoding="UTF-8"?>
<svg xmlns="http://www.w3.org/2000/svg" viewBox="0 0 100 100" fill="none" data-glyph="4" data-group="digits" data-centerline="true">
  <path id="stroke-1" d="M 48.7 18.5 L 52.6 7.599999999999994" fill="none" stroke="#334155" stroke-width="2.8" stroke-linecap="round" stroke-linejoin="round"/>
  <path id="stroke-2" d="M 53.1 49.7 L 53.4 18.700000000000003" fill="none" stroke="#334155" stroke-width="2.8" stroke-linecap="round" stroke-linejoin="round"/>
  <path id="stroke-3" d="M 12.8 63.8 L 40.1 24.700000000000003" fill="none" stroke="#334155" stroke-width="2.8" stroke-linecap="round" stroke-linejoin="round"/>
  <path id="stroke-4" d="M 53.1 63.8 L 53.1 50.3" fill="none" stroke="#334155" stroke-width="2.8" stroke-linecap="round" stroke-linejoin="round"/>
  <path id="stroke-5" d="M 17.7 68.7 L 38.5 68.7" fill="none" stroke="#334155" stroke-width="2.8" stroke-linecap="round" stroke-linejoin="round"/>
  <path id="stroke-6" d="M 39.1 68.7 L 47.9 68.7" fill="none" stroke="#334155" stroke-width="2.8" stroke-linecap="round" stroke-linejoin="round"/>
  <path id="stroke-7" d="M 58.3 68.7 L 70.3 68.7" fill="none" stroke="#334155" stroke-width="2.8" stroke-linecap="round" stroke-linejoin="round"/>
  <path id="stroke-8" d="M 53.1 92.4 L 53.1 73.4" fill="none" stroke="#334155" stroke-width="2.8" stroke-linecap="round" stroke-linejoin="round"/>
  <circle cx="48.7" cy="18.5" r="3" fill="#dc2626" data-stroke-start="1"/><circle cx="52.6" cy="7.599999999999994" r="2" fill="#16a34a" data-stroke-end="1"/>
  <circle cx="53.1" cy="49.7" r="3" fill="#dc2626" data-stroke-start="2"/><circle cx="53.4" cy="18.700000000000003" r="2" fill="#16a34a" data-stroke-end="2"/>
  <circle cx="12.8" cy="63.8" r="3" fill="#dc2626" data-stroke-start="3"/><circle cx="40.1" cy="24.700000000000003" r="2" fill="#16a34a" data-stroke-end="3"/>
  <circle cx="53.1" cy="63.8" r="3" fill="#dc2626" data-stroke-start="4"/><circle cx="53.1" cy="50.3" r="2" fill="#16a34a" data-stroke-end="4"/>
  <circle cx="17.7" cy="68.7" r="3" fill="#dc2626" data-stroke-start="5"/><circle cx="38.5" cy="68.7" r="2" fill="#16a34a" data-stroke-end="5"/>
  <circle cx="39.1" cy="68.7" r="3" fill="#dc2626" data-stroke-start="6"/><circle cx="47.9" cy="68.7" r="2" fill="#16a34a" data-stroke-end="6"/>
  <circle cx="58.3" cy="68.7" r="3" fill="#dc2626" data-stroke-start="7"/><circle cx="70.3" cy="68.7" r="2" fill="#16a34a" data-stroke-end="7"/>
  <circle cx="53.1" cy="92.4" r="3" fill="#dc2626" data-stroke-start="8"/><circle cx="53.1" cy="73.4" r="2" fill="#16a34a" data-stroke-end="8"/>
</svg>
