<?xml version="1.0" encoding="UTF-8"?>
<svg xmlns="http://www.w3.org/2000/svg" viewBox="0 0 100 100" fill="none" data-glyph="0" data-group="digits" data-centerline="true">
  <path id="stroke-1" d="M 22.4 16.400000000000006 L 27.1 13 L 34.1 11.700000000000003" fill="none" stroke="#334155" stroke-width="2.8" stroke-linecap="round" stroke-linejoin="round"/>
  <path id="stroke-2" d="M 46.9 16.400000000000006 L 41.7 12.799999999999997 L 34.6 11.700000000000003" fill="none" stroke="#334155" stroke-width="2.8" stroke-linecap="round" stroke-linejoin="round"/>
  <path id="stroke-3" d="M 12.5 49.2 L 12.8 39.6 L 14.8 27.900000000000006 L 17.2 22.099999999999994 L 20.8 17.700000000000003" fill="none" stroke="#334155" stroke-width="2.8" stroke-linecap="round" stroke-linejoin="round"/>
  <path id="stroke-4" d="M 57.3 50 L 55.2 29.900000000000006 L 52.3 22.400000000000006 L 48.7 18" fill="none" stroke="#334155" stroke-width="2.8" stroke-linecap="round" stroke-linejoin="round"/>
  <path id="stroke-5" d="M 20.8 82 L 17.7 78.4 L 14.8 71.6 L 12.8 59.9 L 12.5 49.7" fill="none" stroke="#334155" stroke-width="2.8" stroke-linecap="round" stroke-linejoin="round"/>
  <path id="stroke-6" d="M 48.7 82.3 L 52.1 78.4 L 54.7 72.4 L 56.8 61.5 L 57.3 50.5" fill="none" stroke="#334155" stroke-width="2.8" stroke-linecap="round" stroke-linejoin="round"/>
  <path id="stroke-7" d="M 34.6 88.3 L 27.9 87.2 L 22.7 83.6" fill="none" stroke="#334155" stroke-width="2.8" stroke-linecap="round" stroke-linejoin="round"/>
  <path id="stroke-8" d="M 35.4 88.3 L 41.1 87.5 L 47.1 83.6" fill="none" stroke="#334155" stroke-width="2.8" stroke-linecap="round" stroke-linejoin="round"/>
  <circle cx="22.4" cy="16.400000000000006" r="3" fill="#dc2626" data-stroke-start="1"/><circle cx="34.1" cy="11.700000000000003" r="2" fill="#16a34a" data-stroke-end="1"/>
  <circle cx="46.9" cy="16.400000000000006" r="3" fill="#dc2626" data-stroke-start="2"/><circle cx="34.6" cy="11.700000000000003" r="2" fill="#16a34a" data-stroke-end="2"/>
  <circle cx="12.5" cy="49.2" r="3" fill="#dc2626" data-stroke-start="3"/><circle cx="20.8" cy="17.700000000000003" r="2" fill="#16a34a" data-stroke-end="3"/>
  <circle cx="57.3" cy="50" r="3" fill="#dc2626" data-stroke-start="4"/><circle cx="48.7" cy="18" r="2" fill="#16a34a" data-stroke-end="4"/>
  <circle cx="20.8" cy="82" r="3" fill="#dc2626" data-stroke-start="5"/><circle cx="12.5" cy="49.7" r="2" fill="#16a34a" data-stroke-end="5"/>
  <circle cx="48.7" cy="82.3" r="3" fill="#dc2626" data-stroke-start="6"/><circle cx="57.3" cy="50.5" r="2" fill="#16a34a" data-stroke-end="6"/>
  <circle cx="34.6" cy="88.3" r="3" fill="#dc2626" data-stroke-start="7"/><circle cx="22.7" cy="83.6" r="2" fill="#16a34a" data-stroke-end="7"/>
  <circle cx="35.4" cy="88.3" r="3" fill="#dc2626" data-stroke-start="8"/><circle cx="47.1" cy="83.6" r="2" fill="#16a34a" data-stroke-end="8"/>
</svg>
