<?xml version="1.0" encoding="UTF-8"?>
<svg xmlns="http://www.w3.org/2000/svg" viewBox="0 0 100 100" fill="none" data-glyph="8" data-group="digits" data-centerline="true">
  <path id="stroke-1" d="M 21.6 15.599999999999994 L 27.9 12.200000000000003 L 34.6 11.5" fill="none" stroke="#334155" stroke-width="2.8" stroke-linecap="round" stroke-linejoin="round"/>
  <path id="stroke-2" d="M 48.2 16.099999999999994 L 43.5 12.799999999999997 L 35.2 11.5" fill="none" stroke="#334155" stroke-width="2.8" stroke-linecap="round" stroke-linejoin="round"/>
  <path id="stroke-3" d="M 15.1 27.299999999999997 L 15.9 21.900000000000006 L 19.3 17.400000000000006" fill="none" stroke="#334155" stroke-width="2.8" stroke-linecap="round" stroke-linejoin="round"/>
  <path id="stroke-4" d="M 54.7 26.799999999999997 L 53.6 21.599999999999994 L 50.8 17.700000000000003" fill="none" stroke="#334155" stroke-width="2.8" stroke-linecap="round" stroke-linejoin="round"/>
  <path id="stroke-5" d="M 20.3 39.3 L 16.1 33.900000000000006 L 15.1 27.900000000000006" fill="none" stroke="#334155" stroke-width="2.8" stroke-linecap="round" stroke-linejoin="round"/>
  <path id="stroke-6" d="M 49.2 39.3 L 53.6 33.3 L 54.7 27.299999999999997" fill="none" stroke="#334155" stroke-width="2.8" stroke-linecap="round" stroke-linejoin="round"/>
  <path id="stroke-7" d="M 33.3 47.7 L 24.7 47.4" fill="none" stroke="#334155" stroke-width="2.8" stroke-linecap="round" stroke-linejoin="round"/>
  <path id="stroke-8" d="M 34.9 48.2 L 43.8 47.9" fill="none" stroke="#334155" stroke-width="2.8" stroke-linecap="round" stroke-linejoin="round"/>
  <path id="stroke-9" d="M 12.2 70.6 L 14.1 62.2 L 18.5 56.8" fill="none" stroke="#334155" stroke-width="2.8" stroke-linecap="round" stroke-linejoin="round"/>
  <path id="stroke-10" d="M 57.3 70.3 L 56.5 64.6 L 51.8 58.1" fill="none" stroke="#334155" stroke-width="2.8" stroke-linecap="round" stroke-linejoin="round"/>
  <path id="stroke-11" d="M 17.2 82.3 L 13.8 77.9 L 12.2 71.1" fill="none" stroke="#334155" stroke-width="2.8" stroke-linecap="round" stroke-linejoin="round"/>
  <path id="stroke-12" d="M 51.8 82.6 L 56.3 76.6 L 57.3 70.8" fill="none" stroke="#334155" stroke-width="2.8" stroke-linecap="round" stroke-linejoin="round"/>
  <path id="stroke-13" d="M 34.4 88.5 L 26.6 87.8 L 20.1 84.4" fill="none" stroke="#334155" stroke-width="2.8" stroke-linecap="round" stroke-linejoin="round"/>
  <path id="stroke-14" d="M 34.9 88.5 L 43.8 87.5 L 49.5 84.4" fill="none" stroke="#334155" stroke-width="2.8" stroke-linecap="round" stroke-linejoin="round"/>
  <circle cx="21.6" cy="15.599999999999994" r="3" fill="#dc2626" data-stroke-start="1"/><circle cx="34.6" cy="11.5" r="2" fill="#16a34a" data-stroke-end="1"/>
  <circle cx="48.2" cy="16.099999999999994" r="3" fill="#dc2626" data-stroke-start="2"/><circle cx="35.2" cy="11.5" r="2" fill="#16a34a" data-stroke-end="2"/>
  <circle cx="15.1" cy="27.299999999999997" r="3" fill="#dc2626" data-stroke-start="3"/><circle cx="19.3" cy="17.400000000000006" r="2" fill="#16a34a" data-stroke-end="3"/>
  <circle cx="54.7" cy="26.799999999999997" r="3" fill="#dc2626" data-stroke-start="4"/><circle cx="50.8" cy="17.700000000000003" r="2" fill="#16a34a" data-stroke-end="4"/>
  <circle cx="20.3" cy="39.3" r="3" fill="#dc2626" data-stroke-start="5"/><circle cx="15.1" cy="27.900000000000006" r="2" fill="#16a34a" data-stroke-end="5"/>
  <circle cx="49.2" cy="39.3" r="3" fill="#dc2626" data-stroke-start="6"/><circle cx="54.7" cy="27.299999999999997" r="2" fill="#16a34a" data-stroke-end="6"/>
  <circle cx="33.3" cy="47.7" r="3" fill="#dc2626" data-stroke-start="7"/><circle cx="24.7" cy="47.4" r="2" fill="#16a34a" data-stroke-end="7"/>
  <circle cx="34.9" cy="48.2" r="3" fill="#dc2626" data-stroke-start="8"/><circle cx="43.8" cy="47.9" r="2" fill="#16a34a" data-stroke-end="8"/>
  <circle cx="12.2" cy="70.6" r="3" fill="#dc2626" data-stroke-start="9"/><circle cx="18.5" cy="56.8" r="2" fill="#16a34a" data-stroke-end="9"/>
  <circle cx="57.3" cy="70.3" r="3" fill="#dc2626" data-stroke-start="10"/><circle cx="51.8" cy="58.1" r="2" fill="#16a34a" data-stroke-end="10"/>
  <circle cx="17.2" cy="82.3" r="3" fill="#dc2626" data-stroke-start="11"/><circle cx="12.2" cy="71.1" r="2" fill="#16a34a" data-stroke-end="11"/>
  <circle cx="51.8" cy="82.6" r="3" fill="#dc2626" data-stroke-start="12"/><circle cx="57.3" cy="70.8" r="2" fill="#16a34a" data-stroke-end="12"/>
  <circle cx="34.4" cy="88.5" r="3" fill="#dc2626" data-stroke-start="13"/><circle cx="20.1" cy="84.4" r="2" fill="#16a34a" data-stroke-end="13"/>
  <circle cx="34.9" cy="88.5" r="3" fill="#dc2626" data-stroke-start="14"/><circle cx="49.5" cy="84.4" r="2" fill="#16a34a" data-stroke-end="14"/>
</svg>
