<?xml version="1.0" encoding="UTF-8"?>
<svg xmlns="http://www.w3.org/2000/svg" viewBox="0 0 100 100" fill="none">
  <path d="M 7.1 92.9 L 31.6 92.9 Q 47.7 92.9 55.9 88.1 Q 64.2 83.4 64.2 71.6 L 64.2 71.6 Q 64.2 66.6 62.3 62.7 Q 60.4 58.8 56.8 56.2 Q 53.1 53.6 47.8 52.6 L 47.8 52.6 L 47.8 52 Q 53.2 51.2 57.6 48.9 Q 62 46.6 64.5 42.4 Q 67 38.2 67 31.5 L 67 31.5 Q 67 23.7 63.4 18.2 Q 59.8 12.8 53.2 10 Q 46.5 7.1 37.3 7.1 L 37.3 7.1 L 7.1 7.1 L 7.1 92.9 M 17.9 56.4 L 33.8 56.4 Q 44.8 56.4 48.9 59.9 Q 53 63.4 53 70.4 L 53 70.4 Q 53 77.5 48 80.6 Q 43 83.6 32.1 83.6 L 32.1 83.6 L 17.9 83.6 L 17.9 56.4 M 34.4 47.4 L 17.9 47.4 L 17.9 16.3 L 35.2 16.3 Q 46.6 16.3 51.1 20.7 Q 55.5 25.2 55.5 32.4 L 55.5 32.4 Q 55.5 36.9 53.5 40.3 Q 51.6 43.6 46.9 45.5 Q 42.3 47.4 34.4 47.4 L 34.4 47.4" fill="#e2e8f0" stroke="#64748b" stroke-width="1.2" stroke-linejoin="round"/>
</svg>
