<?xml version="1.0" encoding="UTF-8"?>
<svg xmlns="http://www.w3.org/2000/svg" viewBox="0 0 100 100" fill="none">
  <path d="M 47.1 83.6 L 47.1 83.6 Q 40.4 83.6 35.1 81.4 Q 29.7 79.1 25.9 74.7 Q 22.2 70.3 20.2 64.1 Q 18.2 57.8 18.2 50 L 18.2 50 Q 18.2 39.7 21.4 32.1 Q 24.7 24.5 31 20.5 Q 37.4 16.4 47 16.4 L 47 16.4 Q 52.5 16.4 57.4 17.3 Q 62.3 18.2 66.9 19.6 L 66.9 19.6 L 66.9 10.5 Q 62.3 8.8 57.3 8 Q 52.3 7.1 45.4 7.1 L 45.4 7.1 Q 32.7 7.1 24.2 12.4 Q 15.7 17.7 11.4 27.3 Q 7.1 37 7.1 50.1 L 7.1 50.1 Q 7.1 59.6 9.8 67.4 Q 12.4 75.2 17.5 80.9 Q 22.6 86.7 30 89.8 Q 37.5 92.9 47.2 92.9 L 47.2 92.9 Q 53.6 92.9 59.6 91.6 Q 65.5 90.3 70.2 88 L 70.2 88 L 66 79.1 Q 62.1 80.8 57.4 82.2 Q 52.7 83.6 47.1 83.6" fill="#e2e8f0" stroke="#64748b" stroke-width="1.2" stroke-linejoin="round"/>
</svg>
