<?xml version="1.0" encoding="UTF-8"?>
<svg xmlns="http://www.w3.org/2000/svg" viewBox="0 0 100 100" fill="none">
  <path d="M 75.8 50.8 L 75.8 50.8 Q 75.8 36.4 70.5 26.7 Q 65.1 17 55.2 12.1 Q 45.2 7.1 31 7.1 L 31 7.1 L 7.1 7.1 L 7.1 92.9 L 33.6 92.9 Q 46.5 92.9 56 88.1 Q 65.5 83.3 70.6 73.9 Q 75.8 64.6 75.8 50.8 M 64.4 50.5 L 64.4 50.5 Q 64.4 61.9 60.6 69.2 Q 56.8 76.5 49.6 80.1 Q 42.3 83.6 32 83.6 L 32 83.6 L 17.9 83.6 L 17.9 16.4 L 29.6 16.4 Q 47 16.4 55.7 25 Q 64.4 33.6 64.4 50.5" fill="#e2e8f0" stroke="#64748b" stroke-width="1.2" stroke-linejoin="round"/>
</svg>
