<?xml version="1.0" encoding="UTF-8"?>
<svg xmlns="http://www.w3.org/2000/svg" viewBox="0 0 100 100" fill="none">
  <path d="M 47.5 43 L 47.5 52.3 L 76.4 52.3 L 76.4 11.5 Q 69.6 9.2 62.7 8.2 Q 55.8 7.1 47.1 7.1 L 47.1 7.1 Q 34.1 7.1 25.2 12.3 Q 16.4 17.5 11.8 27.2 Q 7.1 36.8 7.1 50 L 7.1 50 Q 7.1 63.1 12.3 72.7 Q 17.4 82.2 27.1 87.5 Q 36.7 92.9 50.4 92.9 L 50.4 92.9 Q 57.4 92.9 63.6 91.6 Q 69.9 90.3 75.2 88 L 75.2 88 L 71.3 78.8 Q 66.8 80.8 61.3 82.2 Q 55.7 83.6 49.8 83.6 L 49.8 83.6 Q 39.8 83.6 32.7 79.5 Q 25.6 75.5 21.9 67.9 Q 18.1 60.4 18.1 50 L 18.1 50 Q 18.1 40.1 21.3 32.4 Q 24.5 24.8 31.4 20.5 Q 38.3 16.3 49.5 16.3 L 49.5 16.3 Q 55 16.3 58.9 16.8 Q 62.7 17.4 65.9 18.2 L 65.9 18.2 L 65.9 43 L 47.5 43" fill="#e2e8f0" stroke="#64748b" stroke-width="1.2" stroke-linejoin="round"/>
</svg>
