<?xml version="1.0" encoding="UTF-8"?>
<svg xmlns="http://www.w3.org/2000/svg" viewBox="0 0 100 100" fill="none">
  <path d="M 53.8 7.1 L 45 7.1 L 16.7 82.3 L 16.3 82.3 Q 16.5 79.9 16.7 76.2 Q 16.9 72.4 17 68.1 Q 17.1 63.7 17.1 59.1 L 17.1 59.1 L 17.1 7.1 L 7.1 7.1 L 7.1 92.9 L 23.1 92.9 L 49.5 22.6 L 50 22.6 L 76.9 92.9 L 92.7 92.9 L 92.7 7.1 L 82.1 7.1 L 82.1 59.8 Q 82.1 64 82.2 68.2 Q 82.3 72.3 82.5 76 Q 82.8 79.7 82.9 82.2 L 82.9 82.2 L 82.4 82.2 L 53.8 7.1" fill="#e2e8f0" stroke="#64748b" stroke-width="1.2" stroke-linejoin="round"/>
</svg>
