<?xml version="1.0" encoding="UTF-8"?>
<svg xmlns="http://www.w3.org/2000/svg" viewBox="0 0 100 100" fill="none">
  <path d="M 84 50.1 L 84 50.1 Q 84 40.4 81.5 32.5 Q 79.1 24.6 74.3 18.9 Q 69.4 13.2 62.2 10.2 Q 55.1 7.1 45.6 7.1 L 45.6 7.1 Q 35.8 7.1 28.6 10.2 Q 21.4 13.3 16.6 19 Q 11.8 24.6 9.5 32.6 Q 7.1 40.5 7.1 50.2 L 7.1 50.2 Q 7.1 63 11.3 72.6 Q 15.5 82.1 24.1 87.5 Q 32.7 92.9 45.7 92.9 L 45.7 92.9 Q 58.2 92.9 66.7 87.6 Q 75.2 82.2 79.6 72.6 Q 84 63 84 50.1 M 18.2 50.1 L 18.2 50.1 Q 18.2 39.6 21.1 32 Q 24.1 24.4 30.2 20.3 Q 36.3 16.2 45.6 16.2 L 45.6 16.2 Q 55.1 16.2 61.1 20.3 Q 67.1 24.4 70 32 Q 72.9 39.6 72.9 50.1 L 72.9 50.1 Q 72.9 65.8 66.4 74.7 Q 59.9 83.6 45.7 83.6 L 45.7 83.6 Q 36.3 83.6 30.2 79.6 Q 24.1 75.6 21.1 68.1 Q 18.2 60.6 18.2 50.1" fill="#e2e8f0" stroke="#64748b" stroke-width="1.2" stroke-linejoin="round"/>
</svg>
