<?xml version="1.0" encoding="UTF-8"?>
<svg xmlns="http://www.w3.org/2000/svg" viewBox="0 0 100 100" fill="none">
  <path d="M 7.1 92.9 L 29.8 92.9 Q 46.6 92.9 54.3 86.3 Q 62 79.7 62 67.6 L 62 67.6 Q 62 62.4 60.3 57.5 Q 58.5 52.6 54.6 48.8 Q 50.6 45 44 42.7 Q 37.4 40.5 27.8 40.5 L 27.8 40.5 L 17.9 40.5 L 17.9 7.1 L 7.1 7.1 L 7.1 92.9 M 28.9 83.6 L 28.9 83.6 L 17.9 83.6 L 17.9 49.8 L 26.6 49.8 Q 34.8 49.8 40.2 51.5 Q 45.6 53.2 48.2 57.1 Q 50.8 60.9 50.8 67.2 L 50.8 67.2 Q 50.8 75.5 45.6 79.5 Q 40.3 83.6 28.9 83.6" fill="#e2e8f0" stroke="#64748b" stroke-width="1.2" stroke-linejoin="round"/>
</svg>
