<?xml version="1.0" encoding="UTF-8"?>
<svg xmlns="http://www.w3.org/2000/svg" viewBox="0 0 100 100" fill="none">
  <path d="M 70.3 57.7 L 70.3 57.7 Q 70.3 49.4 68 42.6 Q 65.8 35.8 61.3 31.1 Q 56.9 26.4 50.3 24.2 L 50.3 24.2 L 66.7 7.1 L 54.4 7.1 L 41.1 22.6 Q 40.6 22.6 39.9 22.5 Q 39.3 22.5 38.7 22.5 L 38.7 22.5 Q 30.7 22.5 24.8 25 Q 18.8 27.5 14.9 32.2 Q 11 36.8 9.1 43.3 Q 7.1 49.9 7.1 57.8 L 7.1 57.8 Q 7.1 68.3 10.6 76.2 Q 14 84 21.1 88.5 Q 28.1 92.9 38.8 92.9 L 38.8 92.9 Q 49.1 92.9 56.1 88.5 Q 63.1 84.1 66.7 76.2 Q 70.3 68.3 70.3 57.7 M 16.2 57.7 L 16.2 57.7 Q 16.2 49.1 18.6 42.9 Q 21 36.6 26.1 33.3 Q 31.1 29.9 38.7 29.9 L 38.7 29.9 Q 46.5 29.9 51.4 33.3 Q 56.4 36.6 58.8 42.9 Q 61.2 49.1 61.2 57.7 L 61.2 57.7 Q 61.2 70.6 55.8 78 Q 50.4 85.3 38.8 85.3 L 38.8 85.3 Q 31.1 85.3 26.1 82 Q 21 78.7 18.6 72.5 Q 16.2 66.3 16.2 57.7" fill="#e2e8f0" stroke="#64748b" stroke-width="1.2" stroke-linejoin="round"/>
</svg>
