<?xml version="1.0" encoding="UTF-8"?>
<svg xmlns="http://www.w3.org/2000/svg" viewBox="0 0 100 100" fill="none">
  <path d="M 7.1 92.9 L 30.8 92.9 Q 41.5 92.9 48.4 90.2 Q 55.3 87.5 58.6 82.1 Q 62 76.7 62 68.5 L 62 68.5 Q 62 61.6 59.5 57.1 Q 57 52.5 53.1 49.8 Q 49.2 47.1 44.8 45.6 L 44.8 45.6 L 68.4 7.1 L 55.8 7.1 L 35 42.6 L 17.9 42.6 L 17.9 7.1 L 7.1 7.1 L 7.1 92.9 M 30.2 83.5 L 30.2 83.5 L 17.9 83.5 L 17.9 51.7 L 30.8 51.7 Q 41.2 51.7 46 55.8 Q 50.8 60 50.8 68 L 50.8 68 Q 50.8 73.6 48.6 77 Q 46.4 80.4 41.8 81.9 Q 37.3 83.5 30.2 83.5" fill="#e2e8f0" stroke="#64748b" stroke-width="1.2" stroke-linejoin="round"/>
</svg>
