<?xml version="1.0" encoding="UTF-8"?>
<svg xmlns="http://www.w3.org/2000/svg" viewBox="0 0 100 100" fill="none">
  <path d="M 59.8 30.6 L 59.8 30.6 Q 59.8 23.1 56.2 17.9 Q 52.6 12.7 45.9 9.9 Q 39.1 7.1 30 7.1 L 30 7.1 Q 25.4 7.1 21.1 7.6 Q 16.8 8.1 13.3 9 Q 9.8 9.8 7.1 11.1 L 7.1 11.1 L 7.1 21.2 Q 11.3 19.3 17.6 17.8 Q 23.8 16.3 30.5 16.3 L 30.5 16.3 Q 36.7 16.3 40.9 17.9 Q 45.1 19.5 47.2 22.6 Q 49.3 25.6 49.3 29.7 L 49.3 29.7 Q 49.3 33.8 47.5 36.6 Q 45.8 39.4 41.5 41.8 Q 37.3 44.2 29.7 46.8 L 29.7 46.8 Q 24.3 48.8 20.3 51.1 Q 16.3 53.4 13.6 56.3 Q 10.9 59.2 9.5 63 Q 8.2 66.7 8.2 71.6 L 8.2 71.6 Q 8.2 78.3 11.6 83 Q 15 87.7 21 90.3 Q 27 92.9 34.8 92.9 L 34.8 92.9 Q 41.7 92.9 47.4 91.6 Q 53.2 90.3 57.8 88.2 L 57.8 88.2 L 54.6 79.2 Q 50.2 81.1 45.2 82.3 Q 40.1 83.6 34.6 83.6 L 34.6 83.6 Q 29.3 83.6 25.8 82.1 Q 22.3 80.6 20.6 77.9 Q 18.8 75.1 18.8 71.5 L 18.8 71.5 Q 18.8 67.3 20.6 64.5 Q 22.3 61.7 26.3 59.5 Q 30.3 57.2 37 54.7 L 37 54.7 Q 44.4 52 49.5 48.9 Q 54.6 45.8 57.2 41.5 Q 59.8 37.2 59.8 30.6" fill="#e2e8f0" stroke="#64748b" stroke-width="1.2" stroke-linejoin="round"/>
</svg>
