<?xml version="1.0" encoding="UTF-8"?>
<svg xmlns="http://www.w3.org/2000/svg" viewBox="0 0 100 100" fill="none">
  <path d="M 72.3 92.9 L 72.3 38.2 Q 72.3 29.4 68.7 22.4 Q 65.2 15.3 57.9 11.2 Q 50.6 7.1 39.3 7.1 L 39.3 7.1 Q 23.6 7.1 15.4 15.7 Q 7.1 24.3 7.1 38.4 L 7.1 38.4 L 7.1 92.9 L 17.8 92.9 L 17.8 38 Q 17.8 27.7 23.3 22.1 Q 28.8 16.4 39.9 16.4 L 39.9 16.4 Q 47.6 16.4 52.4 19.2 Q 57.2 21.9 59.5 26.9 Q 61.7 31.8 61.7 38.2 L 61.7 38.2 L 61.7 92.9 L 72.3 92.9" fill="#e2e8f0" stroke="#64748b" stroke-width="1.2" stroke-linejoin="round"/>
</svg>
