<?xml version="1.0" encoding="UTF-8"?>
<svg xmlns="http://www.w3.org/2000/svg" viewBox="0 0 100 100" fill="none">
  <path d="M 84 92.9 L 92.9 92.9 L 74.9 25.2 L 66.2 25.2 L 53.1 69.6 Q 52.5 71.5 51.9 73.6 Q 51.4 75.7 50.9 77.6 Q 50.4 79.5 50.1 80.9 Q 49.8 82.2 49.7 82.9 L 49.7 82.9 Q 49.6 82.2 49.3 80.9 Q 49.1 79.5 48.6 77.6 Q 48.2 75.7 47.6 73.6 Q 47.1 71.5 46.4 69.3 L 46.4 69.3 L 33.7 25.2 L 25 25.2 L 7.1 92.9 L 16 92.9 L 26.6 51.6 Q 27.1 49.4 27.6 47.3 Q 28.1 45.1 28.5 43.1 Q 28.9 41 29.2 39.2 Q 29.5 37.3 29.8 35.5 L 29.8 35.5 Q 30.1 37.4 30.4 39.3 Q 30.7 41.3 31.2 43.5 Q 31.7 45.6 32.2 47.8 Q 32.8 50 33.4 52 L 33.4 52 L 45.3 92.9 L 54.1 92.9 L 66.5 51.8 Q 67.2 49.6 67.8 47.3 Q 68.3 45.1 68.8 43 Q 69.3 41 69.6 39 Q 69.9 37.1 70.2 35.5 L 70.2 35.5 Q 70.5 37.8 71 40.4 Q 71.5 43 72.1 45.9 Q 72.8 48.7 73.5 51.7 L 73.5 51.7 L 84 92.9" fill="#e2e8f0" stroke="#64748b" stroke-width="1.2" stroke-linejoin="round"/>
</svg>
