<?xml version="1.0" encoding="UTF-8"?>
<svg xmlns="http://www.w3.org/2000/svg" viewBox="0 0 100 100" fill="none" data-glyph="A" data-group="en-upper" data-centerline="true">
  <path id="stroke-1" d="M 28.4 51.8 L 33.3 39.1" fill="none" stroke="#334155" stroke-width="2.8" stroke-linecap="round" stroke-linejoin="round"/>
  <path id="stroke-2" d="M 62 51.6 L 58.3 41.7" fill="none" stroke="#334155" stroke-width="2.8" stroke-linecap="round" stroke-linejoin="round"/>
  <path id="stroke-3" d="M 32 61.7 L 45.1 61.7" fill="none" stroke="#334155" stroke-width="2.8" stroke-linecap="round" stroke-linejoin="round"/>
  <path id="stroke-4" d="M 45.6 61.7 L 58.6 61.7" fill="none" stroke="#334155" stroke-width="2.8" stroke-linecap="round" stroke-linejoin="round"/>
  <path id="stroke-5" d="M 18 79.2 L 22.9 66.4" fill="none" stroke="#334155" stroke-width="2.8" stroke-linecap="round" stroke-linejoin="round"/>
  <path id="stroke-6" d="M 72.4 78.6 L 67.4 66.1" fill="none" stroke="#334155" stroke-width="2.8" stroke-linecap="round" stroke-linejoin="round"/>
  <path id="stroke-7" d="M 12.8 92.4 L 17.4 80.2" fill="none" stroke="#334155" stroke-width="2.8" stroke-linecap="round" stroke-linejoin="round"/>
  <path id="stroke-8" d="M 77.6 92.4 L 72.7 79.7" fill="none" stroke="#334155" stroke-width="2.8" stroke-linecap="round" stroke-linejoin="round"/>
  <circle cx="28.4" cy="51.8" r="3" fill="#dc2626" data-stroke-start="1"/><circle cx="33.3" cy="39.1" r="2" fill="#16a34a" data-stroke-end="1"/>
  <circle cx="62" cy="51.6" r="3" fill="#dc2626" data-stroke-start="2"/><circle cx="58.3" cy="41.7" r="2" fill="#16a34a" data-stroke-end="2"/>
  <circle cx="32" cy="61.7" r="3" fill="#dc2626" data-stroke-start="3"/><circle cx="45.1" cy="61.7" r="2" fill="#16a34a" data-stroke-end="3"/>
  <circle cx="45.6" cy="61.7" r="3" fill="#dc2626" data-stroke-start="4"/><circle cx="58.6" cy="61.7" r="2" fill="#16a34a" data-stroke-end="4"/>
  <circle cx="18" cy="79.2" r="3" fill="#dc2626" data-stroke-start="5"/><circle cx="22.9" cy="66.4" r="2" fill="#16a34a" data-stroke-end="5"/>
  <circle cx="72.4" cy="78.6" r="3" fill="#dc2626" data-stroke-start="6"/><circle cx="67.4" cy="66.1" r="2" fill="#16a34a" data-stroke-end="6"/>
  <circle cx="12.8" cy="92.4" r="3" fill="#dc2626" data-stroke-start="7"/><circle cx="17.4" cy="80.2" r="2" fill="#16a34a" data-stroke-end="7"/>
  <circle cx="77.6" cy="92.4" r="3" fill="#dc2626" data-stroke-start="8"/><circle cx="72.7" cy="79.7" r="2" fill="#16a34a" data-stroke-end="8"/>
</svg>
