<?xml version="1.0" encoding="UTF-8"?>
<svg xmlns="http://www.w3.org/2000/svg" viewBox="0 0 100 100" fill="none" data-glyph="B" data-group="en-upper" data-centerline="true">
  <path id="stroke-1" d="M 18.2 12 L 31 12" fill="none" stroke="#334155" stroke-width="2.8" stroke-linecap="round" stroke-linejoin="round"/>
  <path id="stroke-2" d="M 51.8 16.900000000000006 L 45.3 13.299999999999997 L 32 12" fill="none" stroke="#334155" stroke-width="2.8" stroke-linecap="round" stroke-linejoin="round"/>
  <path id="stroke-3" d="M 58.6 27.900000000000006 L 57.6 22.900000000000006 L 54.7 19" fill="none" stroke="#334155" stroke-width="2.8" stroke-linecap="round" stroke-linejoin="round"/>
  <path id="stroke-4" d="M 12.8 43.5 L 12.8 16.700000000000003" fill="none" stroke="#334155" stroke-width="2.8" stroke-linecap="round" stroke-linejoin="round"/>
  <path id="stroke-5" d="M 53.4 41.4 L 57.3 36.5 L 58.6 28.400000000000006" fill="none" stroke="#334155" stroke-width="2.8" stroke-linecap="round" stroke-linejoin="round"/>
  <path id="stroke-6" d="M 7.6 50 L 18 50" fill="none" stroke="#334155" stroke-width="2.8" stroke-linecap="round" stroke-linejoin="round"/>
  <path id="stroke-7" d="M 18.2 48.2 L 28.6 48.2" fill="none" stroke="#334155" stroke-width="2.8" stroke-linecap="round" stroke-linejoin="round"/>
  <path id="stroke-8" d="M 29.2 48.2 L 47.7 47.9" fill="none" stroke="#334155" stroke-width="2.8" stroke-linecap="round" stroke-linejoin="round"/>
  <path id="stroke-9" d="M 61.2 68.7 L 60.2 60.9 L 56.8 56" fill="none" stroke="#334155" stroke-width="2.8" stroke-linecap="round" stroke-linejoin="round"/>
  <path id="stroke-10" d="M 12.8 83.3 L 12.8 52.9" fill="none" stroke="#334155" stroke-width="2.8" stroke-linecap="round" stroke-linejoin="round"/>
  <path id="stroke-11" d="M 56 81.2 L 59.9 75.8 L 61.2 69.3" fill="none" stroke="#334155" stroke-width="2.8" stroke-linecap="round" stroke-linejoin="round"/>
  <path id="stroke-12" d="M 18.2 88 L 31.5 88" fill="none" stroke="#334155" stroke-width="2.8" stroke-linecap="round" stroke-linejoin="round"/>
  <path id="stroke-13" d="M 32.6 88 L 46.6 87 L 53.1 82.8" fill="none" stroke="#334155" stroke-width="2.8" stroke-linecap="round" stroke-linejoin="round"/>
  <circle cx="18.2" cy="12" r="3" fill="#dc2626" data-stroke-start="1"/><circle cx="31" cy="12" r="2" fill="#16a34a" data-stroke-end="1"/>
  <circle cx="51.8" cy="16.900000000000006" r="3" fill="#dc2626" data-stroke-start="2"/><circle cx="32" cy="12" r="2" fill="#16a34a" data-stroke-end="2"/>
  <circle cx="58.6" cy="27.900000000000006" r="3" fill="#dc2626" data-stroke-start="3"/><circle cx="54.7" cy="19" r="2" fill="#16a34a" data-stroke-end="3"/>
  <circle cx="12.8" cy="43.5" r="3" fill="#dc2626" data-stroke-start="4"/><circle cx="12.8" cy="16.700000000000003" r="2" fill="#16a34a" data-stroke-end="4"/>
  <circle cx="53.4" cy="41.4" r="3" fill="#dc2626" data-stroke-start="5"/><circle cx="58.6" cy="28.400000000000006" r="2" fill="#16a34a" data-stroke-end="5"/>
  <circle cx="7.6" cy="50" r="3" fill="#dc2626" data-stroke-start="6"/><circle cx="18" cy="50" r="2" fill="#16a34a" data-stroke-end="6"/>
  <circle cx="18.2" cy="48.2" r="3" fill="#dc2626" data-stroke-start="7"/><circle cx="28.6" cy="48.2" r="2" fill="#16a34a" data-stroke-end="7"/>
  <circle cx="29.2" cy="48.2" r="3" fill="#dc2626" data-stroke-start="8"/><circle cx="47.7" cy="47.9" r="2" fill="#16a34a" data-stroke-end="8"/>
  <circle cx="61.2" cy="68.7" r="3" fill="#dc2626" data-stroke-start="9"/><circle cx="56.8" cy="56" r="2" fill="#16a34a" data-stroke-end="9"/>
  <circle cx="12.8" cy="83.3" r="3" fill="#dc2626" data-stroke-start="10"/><circle cx="12.8" cy="52.9" r="2" fill="#16a34a" data-stroke-end="10"/>
  <circle cx="56" cy="81.2" r="3" fill="#dc2626" data-stroke-start="11"/><circle cx="61.2" cy="69.3" r="2" fill="#16a34a" data-stroke-end="11"/>
  <circle cx="18.2" cy="88" r="3" fill="#dc2626" data-stroke-start="12"/><circle cx="31.5" cy="88" r="2" fill="#16a34a" data-stroke-end="12"/>
  <circle cx="32.6" cy="88" r="3" fill="#dc2626" data-stroke-start="13"/><circle cx="53.1" cy="82.8" r="2" fill="#16a34a" data-stroke-end="13"/>
</svg>
