<?xml version="1.0" encoding="UTF-8"?>
<svg xmlns="http://www.w3.org/2000/svg" viewBox="0 0 100 100" fill="none" data-glyph="C" data-group="en-upper" data-centerline="true">
  <path id="stroke-1" d="M 70.1 12.200000000000003 L 65.4 15.599999999999994 L 56.5 12.799999999999997 L 48.4 12" fill="none" stroke="#334155" stroke-width="2.8" stroke-linecap="round" stroke-linejoin="round"/>
  <path id="stroke-2" d="M 27.6 17.700000000000003 L 37.2 13 L 47.9 12" fill="none" stroke="#334155" stroke-width="2.8" stroke-linecap="round" stroke-linejoin="round"/>
  <path id="stroke-3" d="M 12.8 50.3 L 13.5 40.4 L 15.6 32.8 L 18.8 26.599999999999994 L 22.7 21.900000000000006" fill="none" stroke="#334155" stroke-width="2.8" stroke-linecap="round" stroke-linejoin="round"/>
  <path id="stroke-4" d="M 23.2 78.9 L 19.3 75 L 15.4 67.2 L 12.8 50.8" fill="none" stroke="#334155" stroke-width="2.8" stroke-linecap="round" stroke-linejoin="round"/>
  <path id="stroke-5" d="M 45.6 88 L 35.4 86.7 L 26.8 82.3" fill="none" stroke="#334155" stroke-width="2.8" stroke-linecap="round" stroke-linejoin="round"/>
  <path id="stroke-6" d="M 46.6 88 L 56 87.5 L 66.7 84.9" fill="none" stroke="#334155" stroke-width="2.8" stroke-linecap="round" stroke-linejoin="round"/>
  <circle cx="70.1" cy="12.200000000000003" r="3" fill="#dc2626" data-stroke-start="1"/><circle cx="48.4" cy="12" r="2" fill="#16a34a" data-stroke-end="1"/>
  <circle cx="27.6" cy="17.700000000000003" r="3" fill="#dc2626" data-stroke-start="2"/><circle cx="47.9" cy="12" r="2" fill="#16a34a" data-stroke-end="2"/>
  <circle cx="12.8" cy="50.3" r="3" fill="#dc2626" data-stroke-start="3"/><circle cx="22.7" cy="21.900000000000006" r="2" fill="#16a34a" data-stroke-end="3"/>
  <circle cx="23.2" cy="78.9" r="3" fill="#dc2626" data-stroke-start="4"/><circle cx="12.8" cy="50.8" r="2" fill="#16a34a" data-stroke-end="4"/>
  <circle cx="45.6" cy="88" r="3" fill="#dc2626" data-stroke-start="5"/><circle cx="26.8" cy="82.3" r="2" fill="#16a34a" data-stroke-end="5"/>
  <circle cx="46.6" cy="88" r="3" fill="#dc2626" data-stroke-start="6"/><circle cx="66.7" cy="84.9" r="2" fill="#16a34a" data-stroke-end="6"/>
</svg>
