<?xml version="1.0" encoding="UTF-8"?>
<svg xmlns="http://www.w3.org/2000/svg" viewBox="0 0 100 100" fill="none" data-glyph="D" data-group="en-upper" data-centerline="true">
  <path id="stroke-1" d="M 18.2 12 L 31.5 12" fill="none" stroke="#334155" stroke-width="2.8" stroke-linecap="round" stroke-linejoin="round"/>
  <path id="stroke-2" d="M 56.3 18.5 L 46.1 13.5 L 32 12" fill="none" stroke="#334155" stroke-width="2.8" stroke-linecap="round" stroke-linejoin="round"/>
  <path id="stroke-3" d="M 12.8 49.7 L 12.8 16.700000000000003" fill="none" stroke="#334155" stroke-width="2.8" stroke-linecap="round" stroke-linejoin="round"/>
  <path id="stroke-4" d="M 70.1 49.2 L 69.5 40.9 L 67.4 32.599999999999994 L 60.9 22.700000000000003" fill="none" stroke="#334155" stroke-width="2.8" stroke-linecap="round" stroke-linejoin="round"/>
  <path id="stroke-5" d="M 60.7 76.8 L 65.1 71.4 L 67.7 65.6 L 70.1 49.7" fill="none" stroke="#334155" stroke-width="2.8" stroke-linecap="round" stroke-linejoin="round"/>
  <path id="stroke-6" d="M 12.8 83.3 L 12.8 50.3" fill="none" stroke="#334155" stroke-width="2.8" stroke-linecap="round" stroke-linejoin="round"/>
  <path id="stroke-7" d="M 18.2 88 L 31 88" fill="none" stroke="#334155" stroke-width="2.8" stroke-linecap="round" stroke-linejoin="round"/>
  <path id="stroke-8" d="M 31.5 88 L 45.6 86.2 L 55.2 81.5" fill="none" stroke="#334155" stroke-width="2.8" stroke-linecap="round" stroke-linejoin="round"/>
  <circle cx="18.2" cy="12" r="3" fill="#dc2626" data-stroke-start="1"/><circle cx="31.5" cy="12" r="2" fill="#16a34a" data-stroke-end="1"/>
  <circle cx="56.3" cy="18.5" r="3" fill="#dc2626" data-stroke-start="2"/><circle cx="32" cy="12" r="2" fill="#16a34a" data-stroke-end="2"/>
  <circle cx="12.8" cy="49.7" r="3" fill="#dc2626" data-stroke-start="3"/><circle cx="12.8" cy="16.700000000000003" r="2" fill="#16a34a" data-stroke-end="3"/>
  <circle cx="70.1" cy="49.2" r="3" fill="#dc2626" data-stroke-start="4"/><circle cx="60.9" cy="22.700000000000003" r="2" fill="#16a34a" data-stroke-end="4"/>
  <circle cx="60.7" cy="76.8" r="3" fill="#dc2626" data-stroke-start="5"/><circle cx="70.1" cy="49.7" r="2" fill="#16a34a" data-stroke-end="5"/>
  <circle cx="12.8" cy="83.3" r="3" fill="#dc2626" data-stroke-start="6"/><circle cx="12.8" cy="50.3" r="2" fill="#16a34a" data-stroke-end="6"/>
  <circle cx="18.2" cy="88" r="3" fill="#dc2626" data-stroke-start="7"/><circle cx="31" cy="88" r="2" fill="#16a34a" data-stroke-end="7"/>
  <circle cx="31.5" cy="88" r="3" fill="#dc2626" data-stroke-start="8"/><circle cx="55.2" cy="81.5" r="2" fill="#16a34a" data-stroke-end="8"/>
</svg>
