<?xml version="1.0" encoding="UTF-8"?>
<svg xmlns="http://www.w3.org/2000/svg" viewBox="0 0 100 100" fill="none" data-glyph="E" data-group="en-upper" data-centerline="true">
  <path id="stroke-1" d="M 18.2 12 L 31 12" fill="none" stroke="#334155" stroke-width="2.8" stroke-linecap="round" stroke-linejoin="round"/>
  <path id="stroke-2" d="M 31.5 12 L 54.9 12" fill="none" stroke="#334155" stroke-width="2.8" stroke-linecap="round" stroke-linejoin="round"/>
  <path id="stroke-3" d="M 12.8 43.2 L 12.8 16.900000000000006" fill="none" stroke="#334155" stroke-width="2.8" stroke-linecap="round" stroke-linejoin="round"/>
  <path id="stroke-4" d="M 7.6 50 L 18 50" fill="none" stroke="#334155" stroke-width="2.8" stroke-linecap="round" stroke-linejoin="round"/>
  <path id="stroke-5" d="M 18.2 48.2 L 29.9 48.2" fill="none" stroke="#334155" stroke-width="2.8" stroke-linecap="round" stroke-linejoin="round"/>
  <path id="stroke-6" d="M 30.5 48.2 L 52.9 48.2" fill="none" stroke="#334155" stroke-width="2.8" stroke-linecap="round" stroke-linejoin="round"/>
  <path id="stroke-7" d="M 12.8 83.1 L 12.8 52.9" fill="none" stroke="#334155" stroke-width="2.8" stroke-linecap="round" stroke-linejoin="round"/>
  <path id="stroke-8" d="M 18.2 88 L 31 88" fill="none" stroke="#334155" stroke-width="2.8" stroke-linecap="round" stroke-linejoin="round"/>
  <path id="stroke-9" d="M 31.5 88 L 54.9 88" fill="none" stroke="#334155" stroke-width="2.8" stroke-linecap="round" stroke-linejoin="round"/>
  <circle cx="18.2" cy="12" r="3" fill="#dc2626" data-stroke-start="1"/><circle cx="31" cy="12" r="2" fill="#16a34a" data-stroke-end="1"/>
  <circle cx="31.5" cy="12" r="3" fill="#dc2626" data-stroke-start="2"/><circle cx="54.9" cy="12" r="2" fill="#16a34a" data-stroke-end="2"/>
  <circle cx="12.8" cy="43.2" r="3" fill="#dc2626" data-stroke-start="3"/><circle cx="12.8" cy="16.900000000000006" r="2" fill="#16a34a" data-stroke-end="3"/>
  <circle cx="7.6" cy="50" r="3" fill="#dc2626" data-stroke-start="4"/><circle cx="18" cy="50" r="2" fill="#16a34a" data-stroke-end="4"/>
  <circle cx="18.2" cy="48.2" r="3" fill="#dc2626" data-stroke-start="5"/><circle cx="29.9" cy="48.2" r="2" fill="#16a34a" data-stroke-end="5"/>
  <circle cx="30.5" cy="48.2" r="3" fill="#dc2626" data-stroke-start="6"/><circle cx="52.9" cy="48.2" r="2" fill="#16a34a" data-stroke-end="6"/>
  <circle cx="12.8" cy="83.1" r="3" fill="#dc2626" data-stroke-start="7"/><circle cx="12.8" cy="52.9" r="2" fill="#16a34a" data-stroke-end="7"/>
  <circle cx="18.2" cy="88" r="3" fill="#dc2626" data-stroke-start="8"/><circle cx="31" cy="88" r="2" fill="#16a34a" data-stroke-end="8"/>
  <circle cx="31.5" cy="88" r="3" fill="#dc2626" data-stroke-start="9"/><circle cx="54.9" cy="88" r="2" fill="#16a34a" data-stroke-end="9"/>
</svg>
