<?xml version="1.0" encoding="UTF-8"?>
<svg xmlns="http://www.w3.org/2000/svg" viewBox="0 0 100 100" fill="none" data-glyph="I" data-group="en-upper" data-centerline="true">
  <path id="stroke-1" d="M 17.2 11.700000000000003 L 7.6 10.400000000000006" fill="none" stroke="#334155" stroke-width="2.8" stroke-linecap="round" stroke-linejoin="round"/>
  <path id="stroke-2" d="M 28.4 11.700000000000003 L 38 10.400000000000006" fill="none" stroke="#334155" stroke-width="2.8" stroke-linecap="round" stroke-linejoin="round"/>
  <path id="stroke-3" d="M 22.7 49.7 L 22.7 7.599999999999994" fill="none" stroke="#334155" stroke-width="2.8" stroke-linecap="round" stroke-linejoin="round"/>
  <path id="stroke-4" d="M 7.6 89.6 L 17.2 88.5" fill="none" stroke="#334155" stroke-width="2.8" stroke-linecap="round" stroke-linejoin="round"/>
  <path id="stroke-5" d="M 22.7 92.4 L 22.7 50.3" fill="none" stroke="#334155" stroke-width="2.8" stroke-linecap="round" stroke-linejoin="round"/>
  <path id="stroke-6" d="M 38 89.6 L 28.4 88.5" fill="none" stroke="#334155" stroke-width="2.8" stroke-linecap="round" stroke-linejoin="round"/>
  <circle cx="17.2" cy="11.700000000000003" r="3" fill="#dc2626" data-stroke-start="1"/><circle cx="7.6" cy="10.400000000000006" r="2" fill="#16a34a" data-stroke-end="1"/>
  <circle cx="28.4" cy="11.700000000000003" r="3" fill="#dc2626" data-stroke-start="2"/><circle cx="38" cy="10.400000000000006" r="2" fill="#16a34a" data-stroke-end="2"/>
  <circle cx="22.7" cy="49.7" r="3" fill="#dc2626" data-stroke-start="3"/><circle cx="22.7" cy="7.599999999999994" r="2" fill="#16a34a" data-stroke-end="3"/>
  <circle cx="7.6" cy="89.6" r="3" fill="#dc2626" data-stroke-start="4"/><circle cx="17.2" cy="88.5" r="2" fill="#16a34a" data-stroke-end="4"/>
  <circle cx="22.7" cy="92.4" r="3" fill="#dc2626" data-stroke-start="5"/><circle cx="22.7" cy="50.3" r="2" fill="#16a34a" data-stroke-end="5"/>
  <circle cx="38" cy="89.6" r="3" fill="#dc2626" data-stroke-start="6"/><circle cx="28.4" cy="88.5" r="2" fill="#16a34a" data-stroke-end="6"/>
</svg>
