<?xml version="1.0" encoding="UTF-8"?>
<svg xmlns="http://www.w3.org/2000/svg" viewBox="0 0 100 100" fill="none" data-glyph="M" data-group="en-upper" data-centerline="true">
  <path id="stroke-1" d="M 82.6 18 L 84.6 7.599999999999994" fill="none" stroke="#334155" stroke-width="2.8" stroke-linecap="round" stroke-linejoin="round"/>
  <path id="stroke-2" d="M 12.2 49.7 L 12 18" fill="none" stroke="#334155" stroke-width="2.8" stroke-linecap="round" stroke-linejoin="round"/>
  <path id="stroke-3" d="M 87.2 49.7 L 87.8 18.200000000000003" fill="none" stroke="#334155" stroke-width="2.8" stroke-linecap="round" stroke-linejoin="round"/>
  <path id="stroke-4" d="M 44.3 77.1 L 23.2 20.799999999999997" fill="none" stroke="#334155" stroke-width="2.8" stroke-linecap="round" stroke-linejoin="round"/>
  <path id="stroke-5" d="M 54.9 77.1 L 76.8 19.799999999999997" fill="none" stroke="#334155" stroke-width="2.8" stroke-linecap="round" stroke-linejoin="round"/>
  <path id="stroke-6" d="M 12.2 92.4 L 12.2 50.3" fill="none" stroke="#334155" stroke-width="2.8" stroke-linecap="round" stroke-linejoin="round"/>
  <path id="stroke-7" d="M 87.2 92.4 L 87.2 50.3" fill="none" stroke="#334155" stroke-width="2.8" stroke-linecap="round" stroke-linejoin="round"/>
  <circle cx="82.6" cy="18" r="3" fill="#dc2626" data-stroke-start="1"/><circle cx="84.6" cy="7.599999999999994" r="2" fill="#16a34a" data-stroke-end="1"/>
  <circle cx="12.2" cy="49.7" r="3" fill="#dc2626" data-stroke-start="2"/><circle cx="12" cy="18" r="2" fill="#16a34a" data-stroke-end="2"/>
  <circle cx="87.2" cy="49.7" r="3" fill="#dc2626" data-stroke-start="3"/><circle cx="87.8" cy="18.200000000000003" r="2" fill="#16a34a" data-stroke-end="3"/>
  <circle cx="44.3" cy="77.1" r="3" fill="#dc2626" data-stroke-start="4"/><circle cx="23.2" cy="20.799999999999997" r="2" fill="#16a34a" data-stroke-end="4"/>
  <circle cx="54.9" cy="77.1" r="3" fill="#dc2626" data-stroke-start="5"/><circle cx="76.8" cy="19.799999999999997" r="2" fill="#16a34a" data-stroke-end="5"/>
  <circle cx="12.2" cy="92.4" r="3" fill="#dc2626" data-stroke-start="6"/><circle cx="12.2" cy="50.3" r="2" fill="#16a34a" data-stroke-end="6"/>
  <circle cx="87.2" cy="92.4" r="3" fill="#dc2626" data-stroke-start="7"/><circle cx="87.2" cy="50.3" r="2" fill="#16a34a" data-stroke-end="7"/>
</svg>
