<?xml version="1.0" encoding="UTF-8"?>
<svg xmlns="http://www.w3.org/2000/svg" viewBox="0 0 100 100" fill="none" data-glyph="N" data-group="en-upper" data-centerline="true">
  <path id="stroke-1" d="M 18.2 21.599999999999994 L 13.5 7.599999999999994" fill="none" stroke="#334155" stroke-width="2.8" stroke-linecap="round" stroke-linejoin="round"/>
  <path id="stroke-2" d="M 12.2 49.7 L 11.7 21.900000000000006" fill="none" stroke="#334155" stroke-width="2.8" stroke-linecap="round" stroke-linejoin="round"/>
  <path id="stroke-3" d="M 70.1 49.7 L 70.1 7.599999999999994" fill="none" stroke="#334155" stroke-width="2.8" stroke-linecap="round" stroke-linejoin="round"/>
  <path id="stroke-4" d="M 59.1 77.9 L 22.9 21.900000000000006" fill="none" stroke="#334155" stroke-width="2.8" stroke-linecap="round" stroke-linejoin="round"/>
  <path id="stroke-5" d="M 70.3 77.9 L 70.1 50.3" fill="none" stroke="#334155" stroke-width="2.8" stroke-linecap="round" stroke-linejoin="round"/>
  <path id="stroke-6" d="M 12.2 92.4 L 12.2 50.3" fill="none" stroke="#334155" stroke-width="2.8" stroke-linecap="round" stroke-linejoin="round"/>
  <path id="stroke-7" d="M 68.8 92.4 L 64.1 78.1" fill="none" stroke="#334155" stroke-width="2.8" stroke-linecap="round" stroke-linejoin="round"/>
  <circle cx="18.2" cy="21.599999999999994" r="3" fill="#dc2626" data-stroke-start="1"/><circle cx="13.5" cy="7.599999999999994" r="2" fill="#16a34a" data-stroke-end="1"/>
  <circle cx="12.2" cy="49.7" r="3" fill="#dc2626" data-stroke-start="2"/><circle cx="11.7" cy="21.900000000000006" r="2" fill="#16a34a" data-stroke-end="2"/>
  <circle cx="70.1" cy="49.7" r="3" fill="#dc2626" data-stroke-start="3"/><circle cx="70.1" cy="7.599999999999994" r="2" fill="#16a34a" data-stroke-end="3"/>
  <circle cx="59.1" cy="77.9" r="3" fill="#dc2626" data-stroke-start="4"/><circle cx="22.9" cy="21.900000000000006" r="2" fill="#16a34a" data-stroke-end="4"/>
  <circle cx="70.3" cy="77.9" r="3" fill="#dc2626" data-stroke-start="5"/><circle cx="70.1" cy="50.3" r="2" fill="#16a34a" data-stroke-end="5"/>
  <circle cx="12.2" cy="92.4" r="3" fill="#dc2626" data-stroke-start="6"/><circle cx="12.2" cy="50.3" r="2" fill="#16a34a" data-stroke-end="6"/>
  <circle cx="68.8" cy="92.4" r="3" fill="#dc2626" data-stroke-start="7"/><circle cx="64.1" cy="78.1" r="2" fill="#16a34a" data-stroke-end="7"/>
</svg>
