<?xml version="1.0" encoding="UTF-8"?>
<svg xmlns="http://www.w3.org/2000/svg" viewBox="0 0 100 100" fill="none" data-glyph="O" data-group="en-upper" data-centerline="true">
  <path id="stroke-1" d="M 26.3 17.700000000000003 L 34.6 13.299999999999997 L 45.3 12" fill="none" stroke="#334155" stroke-width="2.8" stroke-linecap="round" stroke-linejoin="round"/>
  <path id="stroke-2" d="M 64.6 17.400000000000006 L 55.7 13 L 45.8 12" fill="none" stroke="#334155" stroke-width="2.8" stroke-linecap="round" stroke-linejoin="round"/>
  <path id="stroke-3" d="M 12.8 49.7 L 14.8 33.900000000000006 L 18.2 26 L 22.1 21.400000000000006" fill="none" stroke="#334155" stroke-width="2.8" stroke-linecap="round" stroke-linejoin="round"/>
  <path id="stroke-4" d="M 78.4 49.7 L 76.3 33.900000000000006 L 73.2 26.599999999999994 L 68.8 20.799999999999997" fill="none" stroke="#334155" stroke-width="2.8" stroke-linecap="round" stroke-linejoin="round"/>
  <path id="stroke-5" d="M 22.1 78.6 L 18.8 74.7 L 15.1 66.9 L 12.8 50.3" fill="none" stroke="#334155" stroke-width="2.8" stroke-linecap="round" stroke-linejoin="round"/>
  <path id="stroke-6" d="M 68.8 78.9 L 75.3 69 L 77.6 60.4 L 78.4 50.3" fill="none" stroke="#334155" stroke-width="2.8" stroke-linecap="round" stroke-linejoin="round"/>
  <path id="stroke-7" d="M 45.3 88 L 35.4 87 L 26.6 82.6" fill="none" stroke="#334155" stroke-width="2.8" stroke-linecap="round" stroke-linejoin="round"/>
  <path id="stroke-8" d="M 45.8 88 L 55.7 87 L 64.6 82.6" fill="none" stroke="#334155" stroke-width="2.8" stroke-linecap="round" stroke-linejoin="round"/>
  <circle cx="26.3" cy="17.700000000000003" r="3" fill="#dc2626" data-stroke-start="1"/><circle cx="45.3" cy="12" r="2" fill="#16a34a" data-stroke-end="1"/>
  <circle cx="64.6" cy="17.400000000000006" r="3" fill="#dc2626" data-stroke-start="2"/><circle cx="45.8" cy="12" r="2" fill="#16a34a" data-stroke-end="2"/>
  <circle cx="12.8" cy="49.7" r="3" fill="#dc2626" data-stroke-start="3"/><circle cx="22.1" cy="21.400000000000006" r="2" fill="#16a34a" data-stroke-end="3"/>
  <circle cx="78.4" cy="49.7" r="3" fill="#dc2626" data-stroke-start="4"/><circle cx="68.8" cy="20.799999999999997" r="2" fill="#16a34a" data-stroke-end="4"/>
  <circle cx="22.1" cy="78.6" r="3" fill="#dc2626" data-stroke-start="5"/><circle cx="12.8" cy="50.3" r="2" fill="#16a34a" data-stroke-end="5"/>
  <circle cx="68.8" cy="78.9" r="3" fill="#dc2626" data-stroke-start="6"/><circle cx="78.4" cy="50.3" r="2" fill="#16a34a" data-stroke-end="6"/>
  <circle cx="45.3" cy="88" r="3" fill="#dc2626" data-stroke-start="7"/><circle cx="26.6" cy="82.6" r="2" fill="#16a34a" data-stroke-end="7"/>
  <circle cx="45.8" cy="88" r="3" fill="#dc2626" data-stroke-start="8"/><circle cx="64.6" cy="82.6" r="2" fill="#16a34a" data-stroke-end="8"/>
</svg>
