<?xml version="1.0" encoding="UTF-8"?>
<svg xmlns="http://www.w3.org/2000/svg" viewBox="0 0 100 100" fill="none" data-glyph="P" data-group="en-upper" data-centerline="true">
  <path id="stroke-1" d="M 18.2 12 L 29.4 12" fill="none" stroke="#334155" stroke-width="2.8" stroke-linecap="round" stroke-linejoin="round"/>
  <path id="stroke-2" d="M 49 17.400000000000006 L 41.7 13.299999999999997 L 29.9 12" fill="none" stroke="#334155" stroke-width="2.8" stroke-linecap="round" stroke-linejoin="round"/>
  <path id="stroke-3" d="M 56.5 32.3 L 54.9 24.200000000000003 L 51.6 19.5" fill="none" stroke="#334155" stroke-width="2.8" stroke-linecap="round" stroke-linejoin="round"/>
  <path id="stroke-4" d="M 12.8 49.7 L 12.8 16.700000000000003" fill="none" stroke="#334155" stroke-width="2.8" stroke-linecap="round" stroke-linejoin="round"/>
  <path id="stroke-5" d="M 50.8 47.1 L 54.9 41.4 L 56.5 32.8" fill="none" stroke="#334155" stroke-width="2.8" stroke-linecap="round" stroke-linejoin="round"/>
  <path id="stroke-6" d="M 18.2 54.9 L 27.9 54.9" fill="none" stroke="#334155" stroke-width="2.8" stroke-linecap="round" stroke-linejoin="round"/>
  <path id="stroke-7" d="M 29.2 54.7 L 40.6 53.4 L 48.2 49.2" fill="none" stroke="#334155" stroke-width="2.8" stroke-linecap="round" stroke-linejoin="round"/>
  <path id="stroke-8" d="M 12.8 92.4 L 12.8 59.6" fill="none" stroke="#334155" stroke-width="2.8" stroke-linecap="round" stroke-linejoin="round"/>
  <circle cx="18.2" cy="12" r="3" fill="#dc2626" data-stroke-start="1"/><circle cx="29.4" cy="12" r="2" fill="#16a34a" data-stroke-end="1"/>
  <circle cx="49" cy="17.400000000000006" r="3" fill="#dc2626" data-stroke-start="2"/><circle cx="29.9" cy="12" r="2" fill="#16a34a" data-stroke-end="2"/>
  <circle cx="56.5" cy="32.3" r="3" fill="#dc2626" data-stroke-start="3"/><circle cx="51.6" cy="19.5" r="2" fill="#16a34a" data-stroke-end="3"/>
  <circle cx="12.8" cy="49.7" r="3" fill="#dc2626" data-stroke-start="4"/><circle cx="12.8" cy="16.700000000000003" r="2" fill="#16a34a" data-stroke-end="4"/>
  <circle cx="50.8" cy="47.1" r="3" fill="#dc2626" data-stroke-start="5"/><circle cx="56.5" cy="32.8" r="2" fill="#16a34a" data-stroke-end="5"/>
  <circle cx="18.2" cy="54.9" r="3" fill="#dc2626" data-stroke-start="6"/><circle cx="27.9" cy="54.9" r="2" fill="#16a34a" data-stroke-end="6"/>
  <circle cx="29.2" cy="54.7" r="3" fill="#dc2626" data-stroke-start="7"/><circle cx="48.2" cy="49.2" r="2" fill="#16a34a" data-stroke-end="7"/>
  <circle cx="12.8" cy="92.4" r="3" fill="#dc2626" data-stroke-start="8"/><circle cx="12.8" cy="59.6" r="2" fill="#16a34a" data-stroke-end="8"/>
</svg>
