<?xml version="1.0" encoding="UTF-8"?>
<svg xmlns="http://www.w3.org/2000/svg" viewBox="0 0 100 100" fill="none" data-glyph="R" data-group="en-upper" data-centerline="true">
  <path id="stroke-1" d="M 18.2 12 L 29.4 12" fill="none" stroke="#334155" stroke-width="2.8" stroke-linecap="round" stroke-linejoin="round"/>
  <path id="stroke-2" d="M 49.2 17.200000000000003 L 42.4 13.299999999999997 L 30.2 12" fill="none" stroke="#334155" stroke-width="2.8" stroke-linecap="round" stroke-linejoin="round"/>
  <path id="stroke-3" d="M 56.3 31 L 55.2 24 L 51.6 19" fill="none" stroke="#334155" stroke-width="2.8" stroke-linecap="round" stroke-linejoin="round"/>
  <path id="stroke-4" d="M 12.8 48.2 L 12.8 16.700000000000003" fill="none" stroke="#334155" stroke-width="2.8" stroke-linecap="round" stroke-linejoin="round"/>
  <path id="stroke-5" d="M 51 45.6 L 54.9 40.4 L 56.5 31.5" fill="none" stroke="#334155" stroke-width="2.8" stroke-linecap="round" stroke-linejoin="round"/>
  <path id="stroke-6" d="M 7.6 50 L 18 50" fill="none" stroke="#334155" stroke-width="2.8" stroke-linecap="round" stroke-linejoin="round"/>
  <path id="stroke-7" d="M 18.2 52.9 L 27.3 52.9" fill="none" stroke="#334155" stroke-width="2.8" stroke-linecap="round" stroke-linejoin="round"/>
  <path id="stroke-8" d="M 40.9 57.3 L 35.2 52.9 L 28.4 52.9" fill="none" stroke="#334155" stroke-width="2.8" stroke-linecap="round" stroke-linejoin="round"/>
  <path id="stroke-9" d="M 12.8 92.4 L 12.8 57.6" fill="none" stroke="#334155" stroke-width="2.8" stroke-linecap="round" stroke-linejoin="round"/>
  <path id="stroke-10" d="M 68.2 92.7 L 57 83.6" fill="none" stroke="#334155" stroke-width="2.8" stroke-linecap="round" stroke-linejoin="round"/>
  <circle cx="18.2" cy="12" r="3" fill="#dc2626" data-stroke-start="1"/><circle cx="29.4" cy="12" r="2" fill="#16a34a" data-stroke-end="1"/>
  <circle cx="49.2" cy="17.200000000000003" r="3" fill="#dc2626" data-stroke-start="2"/><circle cx="30.2" cy="12" r="2" fill="#16a34a" data-stroke-end="2"/>
  <circle cx="56.3" cy="31" r="3" fill="#dc2626" data-stroke-start="3"/><circle cx="51.6" cy="19" r="2" fill="#16a34a" data-stroke-end="3"/>
  <circle cx="12.8" cy="48.2" r="3" fill="#dc2626" data-stroke-start="4"/><circle cx="12.8" cy="16.700000000000003" r="2" fill="#16a34a" data-stroke-end="4"/>
  <circle cx="51" cy="45.6" r="3" fill="#dc2626" data-stroke-start="5"/><circle cx="56.5" cy="31.5" r="2" fill="#16a34a" data-stroke-end="5"/>
  <circle cx="7.6" cy="50" r="3" fill="#dc2626" data-stroke-start="6"/><circle cx="18" cy="50" r="2" fill="#16a34a" data-stroke-end="6"/>
  <circle cx="18.2" cy="52.9" r="3" fill="#dc2626" data-stroke-start="7"/><circle cx="27.3" cy="52.9" r="2" fill="#16a34a" data-stroke-end="7"/>
  <circle cx="40.9" cy="57.3" r="3" fill="#dc2626" data-stroke-start="8"/><circle cx="28.4" cy="52.9" r="2" fill="#16a34a" data-stroke-end="8"/>
  <circle cx="12.8" cy="92.4" r="3" fill="#dc2626" data-stroke-start="9"/><circle cx="12.8" cy="57.6" r="2" fill="#16a34a" data-stroke-end="9"/>
  <circle cx="68.2" cy="92.7" r="3" fill="#dc2626" data-stroke-start="10"/><circle cx="57" cy="83.6" r="2" fill="#16a34a" data-stroke-end="10"/>
</svg>
