<?xml version="1.0" encoding="UTF-8"?>
<svg xmlns="http://www.w3.org/2000/svg" viewBox="0 0 100 100" fill="none" data-glyph="U" data-group="en-upper" data-centerline="true">
  <path id="stroke-1" d="M 12.8 43.5 L 12.8 7.599999999999994" fill="none" stroke="#334155" stroke-width="2.8" stroke-linecap="round" stroke-linejoin="round"/>
  <path id="stroke-2" d="M 66.9 43.5 L 66.9 7.599999999999994" fill="none" stroke="#334155" stroke-width="2.8" stroke-linecap="round" stroke-linejoin="round"/>
  <path id="stroke-3" d="M 19 79.9 L 14.8 74 L 13 67.7 L 12.8 44.5" fill="none" stroke="#334155" stroke-width="2.8" stroke-linecap="round" stroke-linejoin="round"/>
  <path id="stroke-4" d="M 59.1 80.7 L 63.3 76.6 L 66.1 69.5 L 66.9 44.3" fill="none" stroke="#334155" stroke-width="2.8" stroke-linecap="round" stroke-linejoin="round"/>
  <path id="stroke-5" d="M 39.3 88 L 29.2 86.7 L 22.4 82.8" fill="none" stroke="#334155" stroke-width="2.8" stroke-linecap="round" stroke-linejoin="round"/>
  <path id="stroke-6" d="M 39.8 88 L 49.5 87 L 57.6 82.6" fill="none" stroke="#334155" stroke-width="2.8" stroke-linecap="round" stroke-linejoin="round"/>
  <circle cx="12.8" cy="43.5" r="3" fill="#dc2626" data-stroke-start="1"/><circle cx="12.8" cy="7.599999999999994" r="2" fill="#16a34a" data-stroke-end="1"/>
  <circle cx="66.9" cy="43.5" r="3" fill="#dc2626" data-stroke-start="2"/><circle cx="66.9" cy="7.599999999999994" r="2" fill="#16a34a" data-stroke-end="2"/>
  <circle cx="19" cy="79.9" r="3" fill="#dc2626" data-stroke-start="3"/><circle cx="12.8" cy="44.5" r="2" fill="#16a34a" data-stroke-end="3"/>
  <circle cx="59.1" cy="80.7" r="3" fill="#dc2626" data-stroke-start="4"/><circle cx="66.9" cy="44.3" r="2" fill="#16a34a" data-stroke-end="4"/>
  <circle cx="39.3" cy="88" r="3" fill="#dc2626" data-stroke-start="5"/><circle cx="22.4" cy="82.8" r="2" fill="#16a34a" data-stroke-end="5"/>
  <circle cx="39.8" cy="88" r="3" fill="#dc2626" data-stroke-start="6"/><circle cx="57.6" cy="82.6" r="2" fill="#16a34a" data-stroke-end="6"/>
</svg>
