<?xml version="1.0" encoding="UTF-8"?>
<svg xmlns="http://www.w3.org/2000/svg" viewBox="0 0 100 100" fill="none" data-glyph="W" data-group="en-upper" data-centerline="true">
  <path id="stroke-1" d="M 15.4 21.400000000000006 L 11.7 7.599999999999994" fill="none" stroke="#334155" stroke-width="2.8" stroke-linecap="round" stroke-linejoin="round"/>
  <path id="stroke-2" d="M 84.6 21.400000000000006 L 88.3 7.599999999999994" fill="none" stroke="#334155" stroke-width="2.8" stroke-linecap="round" stroke-linejoin="round"/>
  <path id="stroke-3" d="M 23.4 52.6 L 15.9 23.200000000000003" fill="none" stroke="#334155" stroke-width="2.8" stroke-linecap="round" stroke-linejoin="round"/>
  <path id="stroke-4" d="M 35.7 54.7 L 44.5 23.200000000000003" fill="none" stroke="#334155" stroke-width="2.8" stroke-linecap="round" stroke-linejoin="round"/>
  <path id="stroke-5" d="M 64.6 56.2 L 54.9 22.900000000000006" fill="none" stroke="#334155" stroke-width="2.8" stroke-linecap="round" stroke-linejoin="round"/>
  <path id="stroke-6" d="M 75.5 56.5 L 78.6 44" fill="none" stroke="#334155" stroke-width="2.8" stroke-linecap="round" stroke-linejoin="round"/>
  <circle cx="15.4" cy="21.400000000000006" r="3" fill="#dc2626" data-stroke-start="1"/><circle cx="11.7" cy="7.599999999999994" r="2" fill="#16a34a" data-stroke-end="1"/>
  <circle cx="84.6" cy="21.400000000000006" r="3" fill="#dc2626" data-stroke-start="2"/><circle cx="88.3" cy="7.599999999999994" r="2" fill="#16a34a" data-stroke-end="2"/>
  <circle cx="23.4" cy="52.6" r="3" fill="#dc2626" data-stroke-start="3"/><circle cx="15.9" cy="23.200000000000003" r="2" fill="#16a34a" data-stroke-end="3"/>
  <circle cx="35.7" cy="54.7" r="3" fill="#dc2626" data-stroke-start="4"/><circle cx="44.5" cy="23.200000000000003" r="2" fill="#16a34a" data-stroke-end="4"/>
  <circle cx="64.6" cy="56.2" r="3" fill="#dc2626" data-stroke-start="5"/><circle cx="54.9" cy="22.900000000000006" r="2" fill="#16a34a" data-stroke-end="5"/>
  <circle cx="75.5" cy="56.5" r="3" fill="#dc2626" data-stroke-start="6"/><circle cx="78.6" cy="44" r="2" fill="#16a34a" data-stroke-end="6"/>
</svg>
