<?xml version="1.0" encoding="UTF-8"?>
<svg xmlns="http://www.w3.org/2000/svg" viewBox="0 0 100 100" fill="none" data-glyph="Z" data-group="en-upper" data-centerline="true">
  <path id="stroke-1" d="M 8.9 12.200000000000003 L 36.7 12.200000000000003" fill="none" stroke="#334155" stroke-width="2.8" stroke-linecap="round" stroke-linejoin="round"/>
  <path id="stroke-2" d="M 37.2 12.200000000000003 L 52.1 12.200000000000003" fill="none" stroke="#334155" stroke-width="2.8" stroke-linecap="round" stroke-linejoin="round"/>
  <path id="stroke-3" d="M 58.3 16.700000000000003 L 65.1 11.5" fill="none" stroke="#334155" stroke-width="2.8" stroke-linecap="round" stroke-linejoin="round"/>
  <path id="stroke-4" d="M 14.6 82.8 L 58.1 17.200000000000003" fill="none" stroke="#334155" stroke-width="2.8" stroke-linecap="round" stroke-linejoin="round"/>
  <path id="stroke-5" d="M 7.6 88.5 L 14.3 83.3" fill="none" stroke="#334155" stroke-width="2.8" stroke-linecap="round" stroke-linejoin="round"/>
  <path id="stroke-6" d="M 20.6 87.8 L 36.7 87.8" fill="none" stroke="#334155" stroke-width="2.8" stroke-linecap="round" stroke-linejoin="round"/>
  <path id="stroke-7" d="M 37.2 87.8 L 66.4 87.8" fill="none" stroke="#334155" stroke-width="2.8" stroke-linecap="round" stroke-linejoin="round"/>
  <circle cx="8.9" cy="12.200000000000003" r="3" fill="#dc2626" data-stroke-start="1"/><circle cx="36.7" cy="12.200000000000003" r="2" fill="#16a34a" data-stroke-end="1"/>
  <circle cx="37.2" cy="12.200000000000003" r="3" fill="#dc2626" data-stroke-start="2"/><circle cx="52.1" cy="12.200000000000003" r="2" fill="#16a34a" data-stroke-end="2"/>
  <circle cx="58.3" cy="16.700000000000003" r="3" fill="#dc2626" data-stroke-start="3"/><circle cx="65.1" cy="11.5" r="2" fill="#16a34a" data-stroke-end="3"/>
  <circle cx="14.6" cy="82.8" r="3" fill="#dc2626" data-stroke-start="4"/><circle cx="58.1" cy="17.200000000000003" r="2" fill="#16a34a" data-stroke-end="4"/>
  <circle cx="7.6" cy="88.5" r="3" fill="#dc2626" data-stroke-start="5"/><circle cx="14.3" cy="83.3" r="2" fill="#16a34a" data-stroke-end="5"/>
  <circle cx="20.6" cy="87.8" r="3" fill="#dc2626" data-stroke-start="6"/><circle cx="36.7" cy="87.8" r="2" fill="#16a34a" data-stroke-end="6"/>
  <circle cx="37.2" cy="87.8" r="3" fill="#dc2626" data-stroke-start="7"/><circle cx="66.4" cy="87.8" r="2" fill="#16a34a" data-stroke-end="7"/>
</svg>
