<?xml version="1.0" encoding="UTF-8"?>
<svg xmlns="http://www.w3.org/2000/svg" viewBox="0 0 100 100" fill="none" data-glyph="b" data-group="en-lower" data-centerline="true">
  <path id="stroke-1" d="M 12.2 38.3 L 12 9.599999999999994 L 12.8 7.599999999999994" fill="none" stroke="#334155" stroke-width="2.8" stroke-linecap="round" stroke-linejoin="round"/>
  <path id="stroke-2" d="M 35.4 47.9 L 29.4 43.7 L 22.9 42.4" fill="none" stroke="#334155" stroke-width="2.8" stroke-linecap="round" stroke-linejoin="round"/>
  <path id="stroke-3" d="M 42.4 64.3 L 40.9 55.7 L 37.8 50.8" fill="none" stroke="#334155" stroke-width="2.8" stroke-linecap="round" stroke-linejoin="round"/>
  <path id="stroke-4" d="M 37.8 79.2 L 41.7 72.1 L 42.4 64.8" fill="none" stroke="#334155" stroke-width="2.8" stroke-linecap="round" stroke-linejoin="round"/>
  <path id="stroke-5" d="M 13.3 82.8 L 12.5 49.7" fill="none" stroke="#334155" stroke-width="2.8" stroke-linecap="round" stroke-linejoin="round"/>
  <path id="stroke-6" d="M 22.7 88 L 28.4 86.7 L 34.9 82.3" fill="none" stroke="#334155" stroke-width="2.8" stroke-linecap="round" stroke-linejoin="round"/>
  <circle cx="12.2" cy="38.3" r="3" fill="#dc2626" data-stroke-start="1"/><circle cx="12.8" cy="7.599999999999994" r="2" fill="#16a34a" data-stroke-end="1"/>
  <circle cx="35.4" cy="47.9" r="3" fill="#dc2626" data-stroke-start="2"/><circle cx="22.9" cy="42.4" r="2" fill="#16a34a" data-stroke-end="2"/>
  <circle cx="42.4" cy="64.3" r="3" fill="#dc2626" data-stroke-start="3"/><circle cx="37.8" cy="50.8" r="2" fill="#16a34a" data-stroke-end="3"/>
  <circle cx="37.8" cy="79.2" r="3" fill="#dc2626" data-stroke-start="4"/><circle cx="42.4" cy="64.8" r="2" fill="#16a34a" data-stroke-end="4"/>
  <circle cx="13.3" cy="82.8" r="3" fill="#dc2626" data-stroke-start="5"/><circle cx="12.5" cy="49.7" r="2" fill="#16a34a" data-stroke-end="5"/>
  <circle cx="22.7" cy="88" r="3" fill="#dc2626" data-stroke-start="6"/><circle cx="34.9" cy="82.3" r="2" fill="#16a34a" data-stroke-end="6"/>
</svg>
