<?xml version="1.0" encoding="UTF-8"?>
<svg xmlns="http://www.w3.org/2000/svg" viewBox="0 0 100 100" fill="none" data-glyph="c" data-group="en-lower" data-centerline="true">
  <path id="stroke-1" d="M 70.6 16.400000000000006 L 65.4 18.200000000000003 L 48.7 15.099999999999994" fill="none" stroke="#334155" stroke-width="2.8" stroke-linecap="round" stroke-linejoin="round"/>
  <path id="stroke-2" d="M 28.1 23.700000000000003 L 35.9 18 L 47.9 15.099999999999994" fill="none" stroke="#334155" stroke-width="2.8" stroke-linecap="round" stroke-linejoin="round"/>
  <path id="stroke-3" d="M 15.4 52.6 L 15.6 44.3 L 17.7 36.7 L 24.2 27.099999999999994" fill="none" stroke="#334155" stroke-width="2.8" stroke-linecap="round" stroke-linejoin="round"/>
  <path id="stroke-4" d="M 21.6 74.2 L 17.4 67.2 L 15.4 53.1" fill="none" stroke="#334155" stroke-width="2.8" stroke-linecap="round" stroke-linejoin="round"/>
  <path id="stroke-5" d="M 40.4 84.4 L 33.9 83.9 L 27.3 80.5" fill="none" stroke="#334155" stroke-width="2.8" stroke-linecap="round" stroke-linejoin="round"/>
  <path id="stroke-6" d="M 41.1 84.4 L 50.5 82.3 L 72.7 72.1" fill="none" stroke="#334155" stroke-width="2.8" stroke-linecap="round" stroke-linejoin="round"/>
  <circle cx="70.6" cy="16.400000000000006" r="3" fill="#dc2626" data-stroke-start="1"/><circle cx="48.7" cy="15.099999999999994" r="2" fill="#16a34a" data-stroke-end="1"/>
  <circle cx="28.1" cy="23.700000000000003" r="3" fill="#dc2626" data-stroke-start="2"/><circle cx="47.9" cy="15.099999999999994" r="2" fill="#16a34a" data-stroke-end="2"/>
  <circle cx="15.4" cy="52.6" r="3" fill="#dc2626" data-stroke-start="3"/><circle cx="24.2" cy="27.099999999999994" r="2" fill="#16a34a" data-stroke-end="3"/>
  <circle cx="21.6" cy="74.2" r="3" fill="#dc2626" data-stroke-start="4"/><circle cx="15.4" cy="53.1" r="2" fill="#16a34a" data-stroke-end="4"/>
  <circle cx="40.4" cy="84.4" r="3" fill="#dc2626" data-stroke-start="5"/><circle cx="27.3" cy="80.5" r="2" fill="#16a34a" data-stroke-end="5"/>
  <circle cx="41.1" cy="84.4" r="3" fill="#dc2626" data-stroke-start="6"/><circle cx="72.7" cy="72.1" r="2" fill="#16a34a" data-stroke-end="6"/>
</svg>
