<?xml version="1.0" encoding="UTF-8"?>
<svg xmlns="http://www.w3.org/2000/svg" viewBox="0 0 100 100" fill="none" data-glyph="h" data-group="en-lower" data-centerline="true">
  <path id="stroke-1" d="M 13.3 39.6 L 12 12.5 L 12.8 7.599999999999994" fill="none" stroke="#334155" stroke-width="2.8" stroke-linecap="round" stroke-linejoin="round"/>
  <path id="stroke-2" d="M 38 44.8 L 32.6 41.7 L 26.3 41.9" fill="none" stroke="#334155" stroke-width="2.8" stroke-linecap="round" stroke-linejoin="round"/>
  <path id="stroke-3" d="M 44.8 67.2 L 44 54.4 L 41.9 48.7 L 40.1 46.9" fill="none" stroke="#334155" stroke-width="2.8" stroke-linecap="round" stroke-linejoin="round"/>
  <path id="stroke-4" d="M 15.1 92.4 L 14.6 50.5" fill="none" stroke="#334155" stroke-width="2.8" stroke-linecap="round" stroke-linejoin="round"/>
  <path id="stroke-5" d="M 42.4 92.4 L 43.8 88.3 L 44.8 68" fill="none" stroke="#334155" stroke-width="2.8" stroke-linecap="round" stroke-linejoin="round"/>
  <circle cx="13.3" cy="39.6" r="3" fill="#dc2626" data-stroke-start="1"/><circle cx="12.8" cy="7.599999999999994" r="2" fill="#16a34a" data-stroke-end="1"/>
  <circle cx="38" cy="44.8" r="3" fill="#dc2626" data-stroke-start="2"/><circle cx="26.3" cy="41.9" r="2" fill="#16a34a" data-stroke-end="2"/>
  <circle cx="44.8" cy="67.2" r="3" fill="#dc2626" data-stroke-start="3"/><circle cx="40.1" cy="46.9" r="2" fill="#16a34a" data-stroke-end="3"/>
  <circle cx="15.1" cy="92.4" r="3" fill="#dc2626" data-stroke-start="4"/><circle cx="14.6" cy="50.5" r="2" fill="#16a34a" data-stroke-end="4"/>
  <circle cx="42.4" cy="92.4" r="3" fill="#dc2626" data-stroke-start="5"/><circle cx="44.8" cy="68" r="2" fill="#16a34a" data-stroke-end="5"/>
</svg>
