<?xml version="1.0" encoding="UTF-8"?>
<svg xmlns="http://www.w3.org/2000/svg" viewBox="0 0 100 100" fill="none" data-glyph="m" data-group="en-lower" data-centerline="true">
  <path id="stroke-1" d="M 23.2 16.400000000000006 L 27.1 13.799999999999997 L 32 13.299999999999997" fill="none" stroke="#334155" stroke-width="2.8" stroke-linecap="round" stroke-linejoin="round"/>
  <path id="stroke-2" d="M 41.7 17.200000000000003 L 38.8 14.599999999999994 L 32.6 13.299999999999997" fill="none" stroke="#334155" stroke-width="2.8" stroke-linecap="round" stroke-linejoin="round"/>
  <path id="stroke-3" d="M 57.8 16.900000000000006 L 62.8 14.099999999999994 L 67.7 13.799999999999997" fill="none" stroke="#334155" stroke-width="2.8" stroke-linecap="round" stroke-linejoin="round"/>
  <path id="stroke-4" d="M 78.1 19 L 74.7 15.900000000000006 L 68.2 13.799999999999997" fill="none" stroke="#334155" stroke-width="2.8" stroke-linecap="round" stroke-linejoin="round"/>
  <path id="stroke-5" d="M 15.6 42.4 L 15.1 26 L 16.1 21.400000000000006 L 17.7 19.5" fill="none" stroke="#334155" stroke-width="2.8" stroke-linecap="round" stroke-linejoin="round"/>
  <path id="stroke-6" d="M 49.2 45.3 L 49.7 19.799999999999997" fill="none" stroke="#334155" stroke-width="2.8" stroke-linecap="round" stroke-linejoin="round"/>
  <path id="stroke-7" d="M 87.2 46.4 L 84.6 29.200000000000003 L 79.9 21.099999999999994" fill="none" stroke="#334155" stroke-width="2.8" stroke-linecap="round" stroke-linejoin="round"/>
  <path id="stroke-8" d="M 15.1 73.7 L 16.1 67.4 L 15.6 43" fill="none" stroke="#334155" stroke-width="2.8" stroke-linecap="round" stroke-linejoin="round"/>
  <path id="stroke-9" d="M 47.9 73.7 L 49.2 69.5 L 49.2 46.1" fill="none" stroke="#334155" stroke-width="2.8" stroke-linecap="round" stroke-linejoin="round"/>
  <path id="stroke-10" d="M 85.7 73.7 L 87.2 63.5 L 87.2 47.4" fill="none" stroke="#334155" stroke-width="2.8" stroke-linecap="round" stroke-linejoin="round"/>
  <circle cx="23.2" cy="16.400000000000006" r="3" fill="#dc2626" data-stroke-start="1"/><circle cx="32" cy="13.299999999999997" r="2" fill="#16a34a" data-stroke-end="1"/>
  <circle cx="41.7" cy="17.200000000000003" r="3" fill="#dc2626" data-stroke-start="2"/><circle cx="32.6" cy="13.299999999999997" r="2" fill="#16a34a" data-stroke-end="2"/>
  <circle cx="57.8" cy="16.900000000000006" r="3" fill="#dc2626" data-stroke-start="3"/><circle cx="67.7" cy="13.799999999999997" r="2" fill="#16a34a" data-stroke-end="3"/>
  <circle cx="78.1" cy="19" r="3" fill="#dc2626" data-stroke-start="4"/><circle cx="68.2" cy="13.799999999999997" r="2" fill="#16a34a" data-stroke-end="4"/>
  <circle cx="15.6" cy="42.4" r="3" fill="#dc2626" data-stroke-start="5"/><circle cx="17.7" cy="19.5" r="2" fill="#16a34a" data-stroke-end="5"/>
  <circle cx="49.2" cy="45.3" r="3" fill="#dc2626" data-stroke-start="6"/><circle cx="49.7" cy="19.799999999999997" r="2" fill="#16a34a" data-stroke-end="6"/>
  <circle cx="87.2" cy="46.4" r="3" fill="#dc2626" data-stroke-start="7"/><circle cx="79.9" cy="21.099999999999994" r="2" fill="#16a34a" data-stroke-end="7"/>
  <circle cx="15.1" cy="73.7" r="3" fill="#dc2626" data-stroke-start="8"/><circle cx="15.6" cy="43" r="2" fill="#16a34a" data-stroke-end="8"/>
  <circle cx="47.9" cy="73.7" r="3" fill="#dc2626" data-stroke-start="9"/><circle cx="49.2" cy="46.1" r="2" fill="#16a34a" data-stroke-end="9"/>
  <circle cx="85.7" cy="73.7" r="3" fill="#dc2626" data-stroke-start="10"/><circle cx="87.2" cy="47.4" r="2" fill="#16a34a" data-stroke-end="10"/>
</svg>
