<?xml version="1.0" encoding="UTF-8"?>
<svg xmlns="http://www.w3.org/2000/svg" viewBox="0 0 100 100" fill="none" data-glyph="n" data-group="en-lower" data-centerline="true">
  <path id="stroke-1" d="M 42.4 18.200000000000003 L 45.1 9.599999999999994" fill="none" stroke="#334155" stroke-width="2.8" stroke-linecap="round" stroke-linejoin="round"/>
  <path id="stroke-2" d="M 14.6 21.900000000000006 L 14.6 7.599999999999994" fill="none" stroke="#334155" stroke-width="2.8" stroke-linecap="round" stroke-linejoin="round"/>
  <path id="stroke-3" d="M 28.4 24.5 L 34.6 19.799999999999997 L 42.2 18.5" fill="none" stroke="#334155" stroke-width="2.8" stroke-linecap="round" stroke-linejoin="round"/>
  <path id="stroke-4" d="M 16.1 49.7 L 17.4 36.5 L 18.8 31.799999999999997 L 21.4 28.099999999999994" fill="none" stroke="#334155" stroke-width="2.8" stroke-linecap="round" stroke-linejoin="round"/>
  <path id="stroke-5" d="M 60.7 55.5 L 58.6 37.2 L 57 32 L 53.9 27.599999999999994" fill="none" stroke="#334155" stroke-width="2.8" stroke-linecap="round" stroke-linejoin="round"/>
  <path id="stroke-6" d="M 14.1 92.4 L 15.9 87.8 L 16.1 50.3" fill="none" stroke="#334155" stroke-width="2.8" stroke-linecap="round" stroke-linejoin="round"/>
  <path id="stroke-7" d="M 59.4 92.2 L 60.9 83.3 L 60.9 56.5" fill="none" stroke="#334155" stroke-width="2.8" stroke-linecap="round" stroke-linejoin="round"/>
  <circle cx="42.4" cy="18.200000000000003" r="3" fill="#dc2626" data-stroke-start="1"/><circle cx="45.1" cy="9.599999999999994" r="2" fill="#16a34a" data-stroke-end="1"/>
  <circle cx="14.6" cy="21.900000000000006" r="3" fill="#dc2626" data-stroke-start="2"/><circle cx="14.6" cy="7.599999999999994" r="2" fill="#16a34a" data-stroke-end="2"/>
  <circle cx="28.4" cy="24.5" r="3" fill="#dc2626" data-stroke-start="3"/><circle cx="42.2" cy="18.5" r="2" fill="#16a34a" data-stroke-end="3"/>
  <circle cx="16.1" cy="49.7" r="3" fill="#dc2626" data-stroke-start="4"/><circle cx="21.4" cy="28.099999999999994" r="2" fill="#16a34a" data-stroke-end="4"/>
  <circle cx="60.7" cy="55.5" r="3" fill="#dc2626" data-stroke-start="5"/><circle cx="53.9" cy="27.599999999999994" r="2" fill="#16a34a" data-stroke-end="5"/>
  <circle cx="14.1" cy="92.4" r="3" fill="#dc2626" data-stroke-start="6"/><circle cx="16.1" cy="50.3" r="2" fill="#16a34a" data-stroke-end="6"/>
  <circle cx="59.4" cy="92.2" r="3" fill="#dc2626" data-stroke-start="7"/><circle cx="60.9" cy="56.5" r="2" fill="#16a34a" data-stroke-end="7"/>
</svg>
