<?xml version="1.0" encoding="UTF-8"?>
<svg xmlns="http://www.w3.org/2000/svg" viewBox="0 0 100 100" fill="none" data-glyph="o" data-group="en-lower" data-centerline="true">
  <path id="stroke-1" d="M 25.5 20.799999999999997 L 32.6 15.900000000000006 L 38.8 14.799999999999997" fill="none" stroke="#334155" stroke-width="2.8" stroke-linecap="round" stroke-linejoin="round"/>
  <path id="stroke-2" d="M 52.1 20.099999999999994 L 46.1 15.900000000000006 L 39.3 14.799999999999997" fill="none" stroke="#334155" stroke-width="2.8" stroke-linecap="round" stroke-linejoin="round"/>
  <path id="stroke-3" d="M 14.3 49.2 L 16.1 35.2 L 19.5 27.599999999999994 L 22.9 23.700000000000003" fill="none" stroke="#334155" stroke-width="2.8" stroke-linecap="round" stroke-linejoin="round"/>
  <path id="stroke-4" d="M 63.5 49.7 L 61.5 34.099999999999994 L 58.6 27.599999999999994 L 55.5 24" fill="none" stroke="#334155" stroke-width="2.8" stroke-linecap="round" stroke-linejoin="round"/>
  <path id="stroke-5" d="M 22.1 73.7 L 18.2 68.5 L 15.6 62 L 14.3 49.7" fill="none" stroke="#334155" stroke-width="2.8" stroke-linecap="round" stroke-linejoin="round"/>
  <path id="stroke-6" d="M 57.8 73.2 L 62.2 64.6 L 63.5 50.3" fill="none" stroke="#334155" stroke-width="2.8" stroke-linecap="round" stroke-linejoin="round"/>
  <path id="stroke-7" d="M 39.1 84.4 L 33.1 83.3 L 25.3 77.9" fill="none" stroke="#334155" stroke-width="2.8" stroke-linecap="round" stroke-linejoin="round"/>
  <path id="stroke-8" d="M 39.6 84.1 L 47.7 82.8 L 53.6 78.4" fill="none" stroke="#334155" stroke-width="2.8" stroke-linecap="round" stroke-linejoin="round"/>
  <circle cx="25.5" cy="20.799999999999997" r="3" fill="#dc2626" data-stroke-start="1"/><circle cx="38.8" cy="14.799999999999997" r="2" fill="#16a34a" data-stroke-end="1"/>
  <circle cx="52.1" cy="20.099999999999994" r="3" fill="#dc2626" data-stroke-start="2"/><circle cx="39.3" cy="14.799999999999997" r="2" fill="#16a34a" data-stroke-end="2"/>
  <circle cx="14.3" cy="49.2" r="3" fill="#dc2626" data-stroke-start="3"/><circle cx="22.9" cy="23.700000000000003" r="2" fill="#16a34a" data-stroke-end="3"/>
  <circle cx="63.5" cy="49.7" r="3" fill="#dc2626" data-stroke-start="4"/><circle cx="55.5" cy="24" r="2" fill="#16a34a" data-stroke-end="4"/>
  <circle cx="22.1" cy="73.7" r="3" fill="#dc2626" data-stroke-start="5"/><circle cx="14.3" cy="49.7" r="2" fill="#16a34a" data-stroke-end="5"/>
  <circle cx="57.8" cy="73.2" r="3" fill="#dc2626" data-stroke-start="6"/><circle cx="63.5" cy="50.3" r="2" fill="#16a34a" data-stroke-end="6"/>
  <circle cx="39.1" cy="84.4" r="3" fill="#dc2626" data-stroke-start="7"/><circle cx="25.3" cy="77.9" r="2" fill="#16a34a" data-stroke-end="7"/>
  <circle cx="39.6" cy="84.1" r="3" fill="#dc2626" data-stroke-start="8"/><circle cx="53.6" cy="78.4" r="2" fill="#16a34a" data-stroke-end="8"/>
</svg>
