<?xml version="1.0" encoding="UTF-8"?>
<svg xmlns="http://www.w3.org/2000/svg" viewBox="0 0 100 100" fill="none" data-glyph="r" data-group="en-lower" data-centerline="true">
  <path id="stroke-1" d="M 47.1 16.400000000000006 L 50.8 8.299999999999997" fill="none" stroke="#334155" stroke-width="2.8" stroke-linecap="round" stroke-linejoin="round"/>
  <path id="stroke-2" d="M 47.4 16.700000000000003 L 65.1 15.900000000000006" fill="none" stroke="#334155" stroke-width="2.8" stroke-linecap="round" stroke-linejoin="round"/>
  <path id="stroke-3" d="M 16.4 26 L 14.1 7.599999999999994" fill="none" stroke="#334155" stroke-width="2.8" stroke-linecap="round" stroke-linejoin="round"/>
  <path id="stroke-4" d="M 34.1 24 L 38.8 19.799999999999997 L 46.6 16.900000000000006" fill="none" stroke="#334155" stroke-width="2.8" stroke-linecap="round" stroke-linejoin="round"/>
  <path id="stroke-5" d="M 21.4 52.3 L 22.9 34.599999999999994 L 26.8 26.299999999999997" fill="none" stroke="#334155" stroke-width="2.8" stroke-linecap="round" stroke-linejoin="round"/>
  <path id="stroke-6" d="M 20.6 92.4 L 22.1 85.9 L 21.4 53.9" fill="none" stroke="#334155" stroke-width="2.8" stroke-linecap="round" stroke-linejoin="round"/>
  <circle cx="47.1" cy="16.400000000000006" r="3" fill="#dc2626" data-stroke-start="1"/><circle cx="50.8" cy="8.299999999999997" r="2" fill="#16a34a" data-stroke-end="1"/>
  <circle cx="47.4" cy="16.700000000000003" r="3" fill="#dc2626" data-stroke-start="2"/><circle cx="65.1" cy="15.900000000000006" r="2" fill="#16a34a" data-stroke-end="2"/>
  <circle cx="16.4" cy="26" r="3" fill="#dc2626" data-stroke-start="3"/><circle cx="14.1" cy="7.599999999999994" r="2" fill="#16a34a" data-stroke-end="3"/>
  <circle cx="34.1" cy="24" r="3" fill="#dc2626" data-stroke-start="4"/><circle cx="46.6" cy="16.900000000000006" r="2" fill="#16a34a" data-stroke-end="4"/>
  <circle cx="21.4" cy="52.3" r="3" fill="#dc2626" data-stroke-start="5"/><circle cx="26.8" cy="26.299999999999997" r="2" fill="#16a34a" data-stroke-end="5"/>
  <circle cx="20.6" cy="92.4" r="3" fill="#dc2626" data-stroke-start="6"/><circle cx="21.4" cy="53.9" r="2" fill="#16a34a" data-stroke-end="6"/>
</svg>
