<?xml version="1.0" encoding="UTF-8"?>
<svg xmlns="http://www.w3.org/2000/svg" viewBox="0 0 100 100" fill="none" data-glyph="x" data-group="en-lower" data-centerline="true">
  <path id="stroke-1" d="M 24.5 20.799999999999997 L 21.1 13.299999999999997 L 21.9 7.599999999999994" fill="none" stroke="#334155" stroke-width="2.8" stroke-linecap="round" stroke-linejoin="round"/>
  <path id="stroke-2" d="M 63.5 20.299999999999997 L 67.2 13.5 L 67.2 7.799999999999997" fill="none" stroke="#334155" stroke-width="2.8" stroke-linecap="round" stroke-linejoin="round"/>
  <path id="stroke-3" d="M 55.2 32.3 L 61.2 24" fill="none" stroke="#334155" stroke-width="2.8" stroke-linecap="round" stroke-linejoin="round"/>
  <path id="stroke-4" d="M 41.7 49.7 L 43.2 37.2" fill="none" stroke="#334155" stroke-width="2.8" stroke-linecap="round" stroke-linejoin="round"/>
  <path id="stroke-5" d="M 50.3 53.6 L 42.4 51.8" fill="none" stroke="#334155" stroke-width="2.8" stroke-linecap="round" stroke-linejoin="round"/>
  <path id="stroke-6" d="M 39.6 60.4 L 41.1 50.3" fill="none" stroke="#334155" stroke-width="2.8" stroke-linecap="round" stroke-linejoin="round"/>
  <path id="stroke-7" d="M 21.1 74.5 L 31 60.7" fill="none" stroke="#334155" stroke-width="2.8" stroke-linecap="round" stroke-linejoin="round"/>
  <path id="stroke-8" d="M 14.3 91.7 L 14.6 86.5 L 18 79.2" fill="none" stroke="#334155" stroke-width="2.8" stroke-linecap="round" stroke-linejoin="round"/>
  <path id="stroke-9" d="M 64.3 92.4 L 62.5 84.4 L 58.1 77.1" fill="none" stroke="#334155" stroke-width="2.8" stroke-linecap="round" stroke-linejoin="round"/>
  <circle cx="24.5" cy="20.799999999999997" r="3" fill="#dc2626" data-stroke-start="1"/><circle cx="21.9" cy="7.599999999999994" r="2" fill="#16a34a" data-stroke-end="1"/>
  <circle cx="63.5" cy="20.299999999999997" r="3" fill="#dc2626" data-stroke-start="2"/><circle cx="67.2" cy="7.799999999999997" r="2" fill="#16a34a" data-stroke-end="2"/>
  <circle cx="55.2" cy="32.3" r="3" fill="#dc2626" data-stroke-start="3"/><circle cx="61.2" cy="24" r="2" fill="#16a34a" data-stroke-end="3"/>
  <circle cx="41.7" cy="49.7" r="3" fill="#dc2626" data-stroke-start="4"/><circle cx="43.2" cy="37.2" r="2" fill="#16a34a" data-stroke-end="4"/>
  <circle cx="50.3" cy="53.6" r="3" fill="#dc2626" data-stroke-start="5"/><circle cx="42.4" cy="51.8" r="2" fill="#16a34a" data-stroke-end="5"/>
  <circle cx="39.6" cy="60.4" r="3" fill="#dc2626" data-stroke-start="6"/><circle cx="41.1" cy="50.3" r="2" fill="#16a34a" data-stroke-end="6"/>
  <circle cx="21.1" cy="74.5" r="3" fill="#dc2626" data-stroke-start="7"/><circle cx="31" cy="60.7" r="2" fill="#16a34a" data-stroke-end="7"/>
  <circle cx="14.3" cy="91.7" r="3" fill="#dc2626" data-stroke-start="8"/><circle cx="18" cy="79.2" r="2" fill="#16a34a" data-stroke-end="8"/>
  <circle cx="64.3" cy="92.4" r="3" fill="#dc2626" data-stroke-start="9"/><circle cx="58.1" cy="77.1" r="2" fill="#16a34a" data-stroke-end="9"/>
</svg>
