<?xml version="1.0" encoding="UTF-8"?>
<svg xmlns="http://www.w3.org/2000/svg" viewBox="0 0 100 100" fill="none" data-glyph="y" data-group="en-lower" data-centerline="true">
  <path id="stroke-1" d="M 14.6 18.5 L 12 11.5 L 12.2 7.599999999999994" fill="none" stroke="#334155" stroke-width="2.8" stroke-linecap="round" stroke-linejoin="round"/>
  <path id="stroke-2" d="M 41.4 23.400000000000006 L 44.5 7.599999999999994" fill="none" stroke="#334155" stroke-width="2.8" stroke-linecap="round" stroke-linejoin="round"/>
  <path id="stroke-3" d="M 25.5 46.6 L 21.9 37.5" fill="none" stroke="#334155" stroke-width="2.8" stroke-linecap="round" stroke-linejoin="round"/>
  <path id="stroke-4" d="M 31 58.6 L 30.2 47.1" fill="none" stroke="#334155" stroke-width="2.8" stroke-linecap="round" stroke-linejoin="round"/>
  <path id="stroke-5" d="M 25 77.6 L 30.2 61.7" fill="none" stroke="#334155" stroke-width="2.8" stroke-linecap="round" stroke-linejoin="round"/>
  <path id="stroke-6" d="M 22.4 92.4 L 22.1 88 L 24.5 79.4" fill="none" stroke="#334155" stroke-width="2.8" stroke-linecap="round" stroke-linejoin="round"/>
  <circle cx="14.6" cy="18.5" r="3" fill="#dc2626" data-stroke-start="1"/><circle cx="12.2" cy="7.599999999999994" r="2" fill="#16a34a" data-stroke-end="1"/>
  <circle cx="41.4" cy="23.400000000000006" r="3" fill="#dc2626" data-stroke-start="2"/><circle cx="44.5" cy="7.599999999999994" r="2" fill="#16a34a" data-stroke-end="2"/>
  <circle cx="25.5" cy="46.6" r="3" fill="#dc2626" data-stroke-start="3"/><circle cx="21.9" cy="37.5" r="2" fill="#16a34a" data-stroke-end="3"/>
  <circle cx="31" cy="58.6" r="3" fill="#dc2626" data-stroke-start="4"/><circle cx="30.2" cy="47.1" r="2" fill="#16a34a" data-stroke-end="4"/>
  <circle cx="25" cy="77.6" r="3" fill="#dc2626" data-stroke-start="5"/><circle cx="30.2" cy="61.7" r="2" fill="#16a34a" data-stroke-end="5"/>
  <circle cx="22.4" cy="92.4" r="3" fill="#dc2626" data-stroke-start="6"/><circle cx="24.5" cy="79.4" r="2" fill="#16a34a" data-stroke-end="6"/>
</svg>
