<?xml version="1.0" encoding="UTF-8"?>
<svg xmlns="http://www.w3.org/2000/svg" viewBox="0 0 100 100" fill="none">
  <path d="M 59.5 92.9 L 59.5 92.9 Q 67.4 92.9 67.4 79.4 L 67.4 79.4 Q 67.4 78 67.4 76.4 L 67.4 76.4 L 67 63.8 Q 66.9 57.9 66.9 52.2 L 66.9 52.2 L 69.5 11.6 Q 69.5 7.1 60.4 7.1 L 60.4 7.1 Q 59.9 7.1 57.8 7.1 Q 55.7 7.1 54.9 8.8 Q 54.1 10.4 54.8 12.7 Q 55.4 15 54.3 17.9 L 54.3 17.9 Q 46.1 9.1 32.4 9.1 L 32.4 9.1 Q 7.1 9.1 7.1 48.2 L 7.1 48.2 Q 7.1 69.9 15.3 81 Q 23.5 92.1 38.7 92.1 L 38.7 92.1 Q 45.9 92.1 53 89.6 L 53 89.6 Q 55.4 92.9 59.5 92.9 M 40.9 76.5 L 40.9 76.5 Q 30.6 76.5 25.6 70.6 Q 20.6 64.7 20.6 48.9 L 20.6 48.9 Q 20.6 22.4 34.9 22.4 L 34.9 22.4 Q 38.7 22.4 43.3 25.8 Q 47.8 29.2 49.6 33.5 L 49.6 33.5 Q 53 43.2 53 54.7 Q 53 66.1 50.3 71.3 Q 47.5 76.5 40.9 76.5" fill="#e2e8f0" stroke="#64748b" stroke-width="1.2" stroke-linejoin="round"/>
</svg>
