<?xml version="1.0" encoding="UTF-8"?>
<svg xmlns="http://www.w3.org/2000/svg" viewBox="0 0 100 100" fill="none">
  <path d="M 7.1 88.1 L 7.1 88.1 Q 7.1 92.9 13.1 92.9 L 13.1 92.9 Q 15.9 92.9 16.3 89.5 L 16.3 89.5 L 16.3 71.6 Q 16.3 66.6 16.5 61.5 L 16.5 61.5 Q 18.9 62.3 22.6 62.3 L 22.6 62.3 Q 34.2 62.3 40.5 54.5 Q 46.8 46.7 46.8 35 Q 46.8 23.3 39.4 15.2 Q 31.9 7.1 20.2 7.1 Q 8.5 7.1 8.5 13.8 Q 8.5 20.4 7.8 47.5 Q 7.1 74.6 7.1 88.1 M 31.3 49.6 L 31.3 49.6 Q 27 52.9 22.2 52.9 L 22.2 52.9 Q 19.6 52.9 16.8 52 L 16.8 52 Q 17.5 42.2 17.5 17.2 L 17.5 17.2 Q 19.6 16.5 21.7 16.5 L 21.7 16.5 Q 26.4 16.5 31.1 19.9 L 31.1 19.9 Q 38 24.7 38 34.6 Q 38 44.4 31.3 49.6" fill="#e2e8f0" stroke="#64748b" stroke-width="1.2" stroke-linejoin="round"/>
</svg>
