<?xml version="1.0" encoding="UTF-8"?>
<svg xmlns="http://www.w3.org/2000/svg" viewBox="0 0 100 100" fill="none">
  <path d="M 7.1 50.3 Q 7.1 62.6 13.7 72.7 Q 20.2 82.8 30.3 87.8 Q 40.4 92.9 49.9 92.9 Q 59.5 92.9 65.2 90.6 Q 71 88.3 71 84.5 Q 71 80.7 68.9 77 Q 66.8 73.2 63.3 73.2 L 63.3 73.2 Q 62 73.2 56.2 75.3 Q 50.5 77.4 48.8 77.4 L 48.8 77.4 Q 38.2 77.4 30.6 69.6 Q 23.1 61.8 23.1 49 Q 23.1 36.1 27.2 29.8 Q 31.4 23.5 41.5 23.5 L 41.5 23.5 Q 45.5 23.5 55.3 28.2 Q 65.1 32.8 67.5 32.8 Q 69.9 32.8 71.4 31.4 Q 72.9 29.9 72.9 27.7 L 72.9 27.7 Q 72.9 23.3 67.3 18.4 Q 61.7 13.6 53.4 10.4 Q 45.1 7.1 38.5 7.1 L 38.5 7.1 Q 23.8 7.1 15.5 18.7 Q 7.1 30.3 7.1 50.3 L 7.1 50.3" fill="#e2e8f0" stroke="#64748b" stroke-width="1.2" stroke-linejoin="round"/>
</svg>
