<?xml version="1.0" encoding="UTF-8"?>
<svg xmlns="http://www.w3.org/2000/svg" viewBox="0 0 100 100" fill="none">
  <path d="M 37.1 63.5 L 37.1 63.5 L 36.9 86.4 Q 36.9 92.9 41 92.9 Q 45.1 92.9 45.6 89.3 L 45.6 89.3 Q 45.8 87.8 46.2 70.7 Q 46.6 53.6 47.3 38.6 Q 48.1 23.6 48.1 10.7 L 48.1 10.7 Q 48.1 7.1 42.8 7.1 L 42.8 7.1 Q 39.2 7.1 39.2 12.1 L 39.2 12.1 Q 34.1 8.1 27.1 8.1 L 27.1 8.1 Q 18.2 8.1 12.7 14.7 Q 7.1 21.4 7.1 31.1 Q 7.1 40.9 11.1 49.3 Q 15.1 57.8 23.5 61.5 L 23.5 61.5 Q 28.7 63.8 33.6 63.8 L 33.6 63.8 Q 35.4 63.8 37.1 63.5 M 37.7 47.3 Q 36.8 49.9 35.6 51.2 Q 34.4 52.6 33.1 52.9 Q 31.7 53.2 29.8 53.2 Q 27.9 53.2 25.2 51.8 Q 22.5 50.4 20.6 47.2 L 20.6 47.2 Q 16.8 40.7 16.8 33.7 Q 16.8 26.6 19.5 22.2 Q 22.3 17.7 27.5 17.7 Q 32.7 17.7 35.6 22.8 Q 38.6 27.9 38.6 35.9 L 38.6 35.9 Q 38.6 44.8 37.7 47.3" fill="#e2e8f0" stroke="#64748b" stroke-width="1.2" stroke-linejoin="round"/>
</svg>
