<?xml version="1.0" encoding="UTF-8"?>
<svg xmlns="http://www.w3.org/2000/svg" viewBox="0 0 100 100" fill="none">
  <path d="M 36.9 92.9 L 36.9 92.9 Q 46.6 92.9 55.4 87.2 Q 64.2 81.5 64.2 73.1 Q 64.2 64.8 57.1 57 Q 49.9 49.2 38 47.5 L 38 47.5 Q 32.8 46.8 22.6 46.8 L 22.6 46.8 Q 24.6 31.2 30.5 26.2 L 30.5 26.2 Q 32.3 24.2 35.4 24.2 L 35.4 24.2 Q 46.8 24.2 54.5 31.5 Q 62.2 38.7 65.5 38.7 L 65.5 38.7 Q 67 38.7 69.9 36 Q 72.9 33.2 72.9 30.8 L 72.9 30.8 Q 72.9 26 61.3 17.1 L 61.3 17.1 Q 56.1 12.8 48.9 10 Q 41.6 7.1 35.4 7.1 L 35.4 7.1 Q 19.4 7.1 11.9 27.7 L 11.9 27.7 Q 7.1 40.4 7.1 55.6 Q 7.1 70.8 14.3 81.8 Q 21.5 92.9 36.9 92.9 M 37.8 80.2 L 37.8 80.2 Q 30.8 80.2 25.9 72.3 L 25.9 72.3 Q 24 69.5 22.4 59.8 L 22.4 59.8 Q 48.1 59.8 48.1 72.5 L 48.1 72.5 Q 48.1 80.2 37.8 80.2" fill="#e2e8f0" stroke="#64748b" stroke-width="1.2" stroke-linejoin="round"/>
</svg>
