<?xml version="1.0" encoding="UTF-8"?>
<svg xmlns="http://www.w3.org/2000/svg" viewBox="0 0 100 100" fill="none">
  <path d="M 25.5 91.1 Q 27.4 92.5 28.8 92.7 Q 30.1 92.9 35.1 92.9 Q 40.1 92.9 43.3 91.4 Q 46.5 90 46.5 85.7 Q 46.5 81.4 43.1 81.4 L 43.1 81.4 Q 42.3 81.4 39 82.6 Q 35.6 83.9 34.7 83.9 L 34.7 83.9 Q 30.5 83.9 29.6 78.9 L 29.6 78.9 Q 29.4 77.1 29.4 71.5 Q 29.4 65.9 29.4 62.3 L 29.4 62.3 L 37.8 62.3 Q 43.1 62.1 43.1 58.6 L 43.1 58.6 Q 43.1 53.6 35.9 53.4 L 35.9 53.4 Q 34.8 53.2 33.2 53.2 Q 31.7 53.2 29.6 53.4 L 29.6 53.4 Q 29.9 48.6 30.7 36.3 Q 31.6 24 31.6 12.4 L 31.6 12.4 Q 31.6 10 29.6 8.6 Q 27.7 7.1 25.7 7.1 L 25.7 7.1 Q 22.5 7.1 22.5 11 L 22.5 11 Q 22.5 21.7 21.6 31.9 Q 20.8 42.1 20.4 53.4 L 20.4 53.4 Q 9.7 53.4 7.9 55.5 L 7.9 55.5 Q 7.1 56.3 7.1 57.7 L 7.1 57.7 Q 7.1 60.8 9.7 61.7 Q 12.3 62.7 15.6 62.7 Q 19 62.7 20.4 62.7 L 20.4 62.7 Q 20.8 82.2 22.6 86.9 L 22.6 86.9 Q 23.7 89.7 25.5 91.1" fill="#e2e8f0" stroke="#64748b" stroke-width="1.2" stroke-linejoin="round"/>
</svg>
