<?xml version="1.0" encoding="UTF-8"?>
<svg xmlns="http://www.w3.org/2000/svg" viewBox="0 0 100 100" fill="none">
  <path d="M 37 46.1 L 37 46.1 Q 33 41.5 26.9 41.5 Q 20.8 41.5 16.4 45.3 L 16.4 45.3 Q 7.1 52.4 7.1 67.2 L 7.1 67.2 Q 7.1 78.8 13.5 85.8 Q 20 92.9 29.3 92.9 Q 38.7 92.9 42.2 86.5 L 42.2 86.5 Q 45.1 80.8 45.1 69.4 L 45.1 69.4 L 44.9 60.4 Q 44.9 54 45.5 42.7 Q 46.1 31.3 46.1 25.6 L 46.1 25.6 Q 46.1 16.1 41.4 11.6 Q 36.7 7.1 27.1 7.1 L 27.1 7.1 Q 21.4 7.1 15.4 9.6 Q 9.5 12 9.5 15.2 L 9.5 15.2 Q 9.5 17.5 10.7 18.7 Q 12 20 13.7 20 Q 15.3 20 21.1 17.5 Q 26.9 15.1 29.5 15.1 L 29.5 15.1 Q 37.4 15.1 37.4 28.1 Q 37.4 41.2 37 46.1 M 36.9 69.5 Q 36.9 77.5 34.5 80.8 Q 32.1 84 27 84 Q 21.9 84 18.9 79.4 Q 15.8 74.7 15.8 67.6 Q 15.8 60.5 18.7 56.3 Q 21.6 52.1 27.7 52.1 Q 33.8 52.1 35.5 57.3 L 35.5 57.3 Q 36.9 61.5 36.9 69.5" fill="#e2e8f0" stroke="#64748b" stroke-width="1.2" stroke-linejoin="round"/>
</svg>
