<?xml version="1.0" encoding="UTF-8"?>
<svg xmlns="http://www.w3.org/2000/svg" viewBox="0 0 100 100" fill="none">
  <path d="M 19.6 46 L 19.6 46 L 20.5 17.8 Q 20.5 12.5 20.1 11.7 L 20.1 11.7 Q 19.8 9.5 18.7 8.3 Q 17.5 7.1 14.3 7.1 L 14.3 7.1 Q 12.8 7.1 11.8 9.1 Q 10.8 11.1 10.7 13.6 L 10.7 13.6 Q 9.9 34.6 8.5 53.1 Q 7.1 71.6 7.1 87.5 L 7.1 87.5 Q 7.1 90 8.8 91.4 Q 10.5 92.9 12.8 92.9 L 12.8 92.9 Q 16.1 92.9 16.8 87.1 Q 17.4 81.4 17.6 72.8 Q 17.8 64.2 18 60.2 L 18 60.2 Q 24 63.3 30 63.3 L 30 63.3 Q 43.8 63.3 47.5 51.1 L 47.5 51.1 Q 49.7 44.2 49.7 33.3 L 49.7 33.3 Q 49.7 29.7 49 22 Q 48.4 14.3 48.3 12 Q 48.1 9.8 46.3 8.5 Q 44.4 7.3 42.3 7.3 L 42.3 7.3 Q 38.9 7.3 38.9 10.8 L 38.9 10.8 L 39.8 31.6 Q 39.8 34.3 39.5 40.4 Q 39.3 46.5 37.1 50.1 Q 34.9 53.6 29.4 53.6 L 29.4 53.6 Q 19.6 53.6 19.6 46" fill="#e2e8f0" stroke="#64748b" stroke-width="1.2" stroke-linejoin="round"/>
</svg>
