<?xml version="1.0" encoding="UTF-8"?>
<svg xmlns="http://www.w3.org/2000/svg" viewBox="0 0 100 100" fill="none">
  <path d="M 14.4 92.9 L 14.4 92.9 Q 16.8 92.9 19 90.6 Q 21.1 88.3 21.1 85.8 Q 21.1 83.3 18.8 80.8 Q 16.4 78.2 13.9 78.2 Q 11.3 78.2 9.2 80.4 Q 7.1 82.5 7.1 85.9 L 7.1 85.9 Q 7.1 92.3 14.1 92.9 L 14.1 92.9 Q 14.3 92.9 14.4 92.9 M 20 52.6 L 20 22.5 L 20.2 13.1 Q 20.2 10.5 18.2 8.8 Q 16.1 7.1 13.9 7.1 L 13.9 7.1 Q 10.5 7.1 10.4 10.5 L 10.4 10.5 Q 8.6 53.4 8.6 57.9 Q 8.6 62.5 9 69.1 L 9 69.1 Q 9.3 71.5 12.1 71.5 L 12.1 71.5 Q 19.2 71.5 20.2 65.7 L 20.2 65.7 Q 20.6 62.8 20.6 61 L 20.6 61 L 20 52.6" fill="#e2e8f0" stroke="#64748b" stroke-width="1.2" stroke-linejoin="round"/>
</svg>
