<?xml version="1.0" encoding="UTF-8"?>
<svg xmlns="http://www.w3.org/2000/svg" viewBox="0 0 100 100" fill="none">
  <path d="M 27.6 92.9 L 27.6 92.9 Q 29.4 92.9 30.9 91.2 Q 32.5 89.6 32.5 87.8 Q 32.5 86 30.8 84.2 Q 29.1 82.3 27.2 82.3 Q 25.4 82.3 23.9 83.9 Q 22.4 85.4 22.4 87.8 L 22.4 87.8 Q 22.4 92.5 27.4 92.9 L 27.4 92.9 Q 27.5 92.9 27.6 92.9 M 24.5 73.9 Q 24.3 75.5 25.6 76.5 Q 26.9 77.5 29.4 77.5 Q 31.9 77.5 32.2 75.1 L 32.2 75.1 Q 33.5 63.2 33.5 52.6 Q 33.5 41.9 32.8 31.3 Q 32.2 20.6 29.8 14.8 L 29.8 14.8 Q 26.5 7.1 17.9 7.1 L 17.9 7.1 Q 13.5 7.1 10.3 9.8 Q 7.1 12.6 7.1 16.3 L 7.1 16.3 Q 7.1 18.4 8.6 19.4 Q 10 20.5 11.8 20.5 Q 13.5 20.5 14.4 19.6 Q 15.3 18.7 15.6 17.7 L 15.6 17.7 Q 16.5 14.9 18.9 14.9 Q 21.3 14.9 22.9 18.6 Q 24.6 22.4 25.2 28.9 Q 25.7 35.4 25.7 42.6 L 25.7 42.6 Q 25.7 65.3 24.5 73.9 L 24.5 73.9" fill="#e2e8f0" stroke="#64748b" stroke-width="1.2" stroke-linejoin="round"/>
</svg>
