<?xml version="1.0" encoding="UTF-8"?>
<svg xmlns="http://www.w3.org/2000/svg" viewBox="0 0 100 100" fill="none">
  <path d="M 49.4 12.8 L 49.4 12.8 Q 49.4 7.1 44.2 7.1 L 44.2 7.1 Q 42.1 7.1 38.4 17.8 Q 34.6 28.4 28.4 34.2 L 28.4 34.2 Q 27.8 33.3 23.3 29.4 Q 18.8 25.5 17.9 24.7 L 17.9 24.7 L 17.9 12.7 Q 17.7 10.9 17.3 9.9 Q 17 8.9 15.7 8.1 Q 14.5 7.3 12.3 7.3 L 12.3 7.3 Q 9.1 7.3 9.1 11.2 L 9.1 11.2 Q 9.1 22.4 8.1 45.9 Q 7.1 69.3 7.1 87.9 L 7.1 87.9 Q 7.1 90.2 9 91.5 Q 10.9 92.9 12.9 92.9 L 12.9 92.9 Q 15.7 92.9 16.3 89.4 L 16.3 89.4 L 16.3 68.1 Q 16.3 64.3 16.4 62.4 Q 16.5 60.4 16.6 56.6 L 16.6 56.6 Q 16.9 48.7 17.5 38.7 L 17.5 38.7 Q 20.9 41.4 26.4 47.1 Q 31.9 52.8 34.6 56.8 L 34.6 56.8 Q 39 63.7 42.6 63.7 L 42.6 63.7 Q 43.5 63.7 44.5 63.2 L 44.5 63.2 Q 47 61.8 47 59.8 Q 47 57.9 45.3 54.8 L 45.3 54.8 Q 41 47.4 35.4 41.2 L 35.4 41.2 Q 40.8 35.2 46.2 24.1 L 46.2 24.1 Q 49.4 16.9 49.4 12.8" fill="#e2e8f0" stroke="#64748b" stroke-width="1.2" stroke-linejoin="round"/>
</svg>
