<?xml version="1.0" encoding="UTF-8"?>
<svg xmlns="http://www.w3.org/2000/svg" viewBox="0 0 100 100" fill="none">
  <path d="M 7.4 85.6 Q 7.7 90.1 8.9 91.5 Q 10 92.9 12.6 92.9 L 12.6 92.9 Q 17.7 92.9 17.7 88.6 L 17.7 88.6 Q 17.7 85.4 17.2 71.7 Q 16.6 58 16.6 47.2 Q 16.6 36.4 17.5 29.7 L 17.5 29.7 Q 18.9 18.2 21.6 18.2 Q 24.2 18.2 25.5 21.9 L 25.5 21.9 Q 26.1 23.4 27.5 24.5 Q 28.8 25.7 30.8 25.7 L 30.8 25.7 Q 35 25.7 35 18.6 L 35 18.6 Q 35 14.7 30.9 10.9 Q 26.7 7.1 22.7 7.1 Q 18.6 7.1 16.1 8.5 Q 13.6 9.9 12.1 12.7 Q 10.6 15.4 9.7 18 Q 8.8 20.6 8.5 24.3 L 8.5 24.3 Q 7.7 30.3 7.4 43.6 Q 7.1 56.9 7.1 69 Q 7.1 81.1 7.4 85.6" fill="#e2e8f0" stroke="#64748b" stroke-width="1.2" stroke-linejoin="round"/>
</svg>
