<?xml version="1.0" encoding="UTF-8"?>
<svg xmlns="http://www.w3.org/2000/svg" viewBox="0 0 100 100" fill="none">
  <path d="M 15 26 L 15 26 Q 11.3 26 10.6 30.1 L 10.6 30.1 Q 10.6 58.9 7.1 81.4 L 7.1 81.4 Q 7.1 84.3 9.2 86.6 Q 11.3 88.9 13.9 88.9 Q 16.6 88.9 17.8 85.9 L 17.8 85.9 Q 23.1 92.9 32 92.9 L 32 92.9 Q 43.2 92.9 49.4 82 L 49.4 82 Q 56.5 92.3 68.3 92.3 Q 80 92.3 85.9 82.9 L 85.9 82.9 Q 89.7 77 91.3 67.5 Q 92.9 57.9 92.9 40.4 L 92.9 40.4 Q 92.9 33.5 91.4 29.7 Q 90 26 85.4 26 L 85.4 26 Q 81.7 26 81.7 30.7 L 81.7 30.7 L 82.2 48.5 Q 82.2 80.6 65.5 80.6 L 65.5 80.6 Q 60.2 80.6 58.1 76.9 L 58.1 76.9 Q 55.6 72.5 55.2 67.6 L 55.2 67.6 Q 54.6 59.1 54.6 52.1 L 54.6 52.1 L 54.6 31.4 Q 54.6 29.1 52.4 27.5 Q 50.1 26 47.6 26 L 47.6 26 Q 44.5 26 43.7 30.1 L 43.7 30.1 L 44.1 59.6 Q 44.1 75.3 38.8 79.2 L 38.8 79.2 Q 36.2 81 31 81 Q 25.8 81 23.3 77.2 Q 20.8 73.3 20.8 64.8 L 20.8 64.8 L 21.7 38.2 Q 21.7 26 15 26" fill="#e2e8f0" stroke="#64748b" stroke-width="1.2" stroke-linejoin="round"/>
</svg>
