<?xml version="1.0" encoding="UTF-8"?>
<svg xmlns="http://www.w3.org/2000/svg" viewBox="0 0 100 100" fill="none">
  <path d="M 9.1 12.8 L 9.1 12.8 L 7.1 85.2 Q 7.1 88.6 9.5 90.7 Q 11.8 92.9 14.1 92.9 L 14.1 92.9 Q 19.8 92.9 20.7 88 L 20.7 88 Q 21.4 83.2 21.4 78.1 L 21.4 78.1 Q 31 90.7 45.5 90.7 L 45.5 90.7 Q 67.6 90.7 67.6 40.3 L 67.6 40.3 Q 67.6 35.7 67.6 26.3 Q 67.6 16.9 66.5 12.7 L 66.5 12.7 Q 65.2 7.3 58.8 7.3 L 58.8 7.3 Q 54.5 7.3 54.5 13 L 54.5 13 L 54.7 23 Q 54.7 43.7 53.4 51.2 Q 52 58.8 50.8 63.3 L 50.8 63.3 Q 47.8 72.9 41 72.9 L 41 72.9 Q 32.1 72.9 28.5 66.5 L 28.5 66.5 Q 24.6 59.5 23.9 50.1 L 23.9 50.1 Q 22.6 33.5 22.6 15 L 22.6 15 Q 22.6 11.4 20 9.3 Q 17.3 7.1 13.6 7.1 L 13.6 7.1 Q 9.1 7.1 9.1 12.8" fill="#e2e8f0" stroke="#64748b" stroke-width="1.2" stroke-linejoin="round"/>
</svg>
