<?xml version="1.0" encoding="UTF-8"?>
<svg xmlns="http://www.w3.org/2000/svg" viewBox="0 0 100 100" fill="none">
  <path d="M 40.7 92.9 L 40.7 92.9 Q 53.9 92.9 62.5 80.2 Q 71 67.5 71 49.8 Q 71 32.1 62.3 19.6 Q 53.6 7.1 39.2 7.1 Q 24.8 7.1 16 19.9 Q 7.1 32.7 7.1 48.3 L 7.1 48.3 Q 7.1 68.3 15.2 80.2 L 15.2 80.2 Q 23.8 92.9 40.7 92.9 M 38.5 77.8 L 38.5 77.8 Q 30.8 77.8 25.9 69.7 Q 20.9 61.7 20.9 52.7 L 20.9 52.7 Q 20.9 38.7 26.4 31.4 Q 31.9 24 38.9 24 L 38.9 24 Q 51.4 24 54.9 34.9 L 54.9 34.9 Q 56.3 40 56.3 47.7 L 56.3 47.7 Q 56.3 77.8 38.5 77.8" fill="#e2e8f0" stroke="#64748b" stroke-width="1.2" stroke-linejoin="round"/>
</svg>
