<?xml version="1.0" encoding="UTF-8"?>
<svg xmlns="http://www.w3.org/2000/svg" viewBox="0 0 100 100" fill="none">
  <path d="M 24.2 41.5 L 24.2 41.5 Q 20.4 41.5 17.3 44.1 L 17.3 44.1 Q 17.3 44.1 15.8 45.3 L 15.8 45.3 L 15.8 12.3 Q 15.2 10.1 13.5 8.6 Q 11.9 7.1 10 7.1 L 10 7.1 Q 7.1 7.1 7.1 11 L 7.1 11 L 7.1 87.6 Q 7.8 90.4 8.7 91.6 Q 9.7 92.9 11.7 92.9 Q 13.7 92.9 14.3 91.9 Q 14.9 91 15.8 86.8 L 15.8 86.8 Q 16.3 89 19.3 90.9 Q 22.4 92.7 27.6 92.7 L 27.6 92.7 Q 38.8 92.7 43.5 84.6 Q 48.2 76.5 48.2 65.4 Q 48.2 54.4 41.8 48 Q 35.4 41.5 24.2 41.5 M 15.8 74.5 L 15.8 74.5 L 15.8 54.1 Q 16.5 53.7 17.4 53 L 17.4 53 Q 20.5 50.1 24.3 50.1 L 24.3 50.1 Q 39.5 50.1 39.5 65.7 L 39.5 65.7 Q 39.5 79 32.6 82.5 L 32.6 82.5 Q 29.8 84.1 25.6 84.1 L 25.6 84.1 Q 21.5 83.5 18.7 80.5 Q 15.8 77.5 15.8 74.5" fill="#e2e8f0" stroke="#64748b" stroke-width="1.2" stroke-linejoin="round"/>
</svg>
