<?xml version="1.0" encoding="UTF-8"?>
<svg xmlns="http://www.w3.org/2000/svg" viewBox="0 0 100 100" fill="none">
  <path d="M 43 10.5 L 43 10.5 Q 43 10.7 43 11 L 43 11 L 43.5 28.5 Q 43.5 34.1 43 40.2 L 43 40.2 L 42.4 48.8 Q 38.7 41.6 26.9 41.6 L 26.9 41.6 Q 21.3 41.6 16.4 45.3 L 16.4 45.3 Q 7.1 52.4 7.1 66.7 L 7.1 66.7 Q 7.1 78.9 12.7 85.9 Q 18.3 92.9 28.7 92.9 Q 39.1 92.9 44 87.3 L 44 87.3 Q 47.5 83.6 48.9 79.4 L 48.9 79.4 Q 51 72.1 51.1 62.4 L 51.1 62.4 L 51.1 58.3 L 52 35.4 Q 52.1 32 52.1 25.9 L 52.1 25.9 L 52.1 12.3 Q 51.7 10.2 49.9 8.7 Q 48.1 7.1 46.7 7.1 L 46.7 7.1 Q 43 7.1 43 10.5 M 25.4 84.1 L 25.4 84.1 Q 20.6 84.1 18.3 80.4 Q 16 76.6 16 68.2 Q 16 59.8 19.6 54.8 Q 23.3 49.8 28 49.8 Q 32.8 49.8 36.5 53.2 Q 40.2 56.6 42.2 62.9 L 42.2 62.9 Q 41.6 74.6 37.7 79.4 Q 33.9 84.1 25.4 84.1" fill="#e2e8f0" stroke="#64748b" stroke-width="1.2" stroke-linejoin="round"/>
</svg>
