<?xml version="1.0" encoding="UTF-8"?>
<svg xmlns="http://www.w3.org/2000/svg" viewBox="0 0 100 100" fill="none">
  <path d="M 28.8 34.2 L 28.8 34.2 L 29 15.8 Q 29 12.5 26.1 9.8 Q 23.1 7.1 20.2 7.1 L 20.2 7.1 Q 16.1 7.1 15 13.6 L 15 13.6 Q 14.9 15 13.6 39.9 Q 12.3 64.7 8.8 78.9 L 8.8 78.9 Q 7.1 85.7 7.1 86.9 L 7.1 86.9 Q 7.1 92.9 14.3 92.9 L 14.3 92.9 Q 17.4 92.9 19.2 90.5 Q 21 88.2 21.4 85.8 Q 21.8 83.4 22.2 79.2 Q 22.6 75.1 22.7 74 L 22.7 74 Q 26.5 83 34 87.5 Q 41.6 92 50.5 92 L 50.5 92 Q 65.2 92 65.2 84.4 L 65.2 84.4 Q 65.2 80.7 62.6 78.4 Q 60 76.2 56.6 76.2 L 56.6 76.2 Q 41.4 76.2 35.1 66.5 Q 28.8 56.8 28.8 34.2" fill="#e2e8f0" stroke="#64748b" stroke-width="1.2" stroke-linejoin="round"/>
</svg>
