<?xml version="1.0" encoding="UTF-8"?>
<svg xmlns="http://www.w3.org/2000/svg" viewBox="0 0 100 100" fill="none">
  <path d="M 7.1 69 Q 7.1 79.9 14.9 86.4 Q 22.7 92.9 32.9 92.9 Q 43.2 92.9 52.6 89.2 Q 62 85.5 62 79.4 L 62 79.4 Q 62 76.2 59.6 74.4 Q 57.2 72.5 55.4 72.5 Q 53.7 72.5 52.7 72.6 Q 51.7 72.7 45.3 76 Q 38.9 79.4 33.6 79.4 Q 28.2 79.4 24.4 76.7 Q 20.6 74 20.6 68.8 Q 20.6 63.7 25 60.7 Q 29.3 57.8 40.2 55.6 Q 51.1 53.5 56.9 49.6 Q 62.7 45.8 62.7 35.2 L 62.7 35.2 Q 62.7 19.9 54.7 13.5 Q 46.7 7.1 35.2 7.1 Q 23.8 7.1 15.7 10.3 Q 7.7 13.4 7.7 19.7 L 7.7 19.7 Q 7.7 26.9 14.9 26.9 L 14.9 26.9 Q 16.7 26.9 23 24.3 Q 29.3 21.7 35.5 21.7 Q 41.7 21.7 44.9 25.7 Q 48.2 29.7 48.2 34.9 Q 48.2 40 43.9 42.3 Q 39.7 44.6 31 46.1 Q 22.3 47.6 18.2 49.3 L 18.2 49.3 Q 7.1 53.7 7.1 69 L 7.1 69" fill="#e2e8f0" stroke="#64748b" stroke-width="1.2" stroke-linejoin="round"/>
</svg>
