<?xml version="1.0" encoding="UTF-8"?>
<svg xmlns="http://www.w3.org/2000/svg" viewBox="0 0 100 100" fill="none">
  <path d="M 13.9 63.3 L 13.9 63.3 L 19.9 63.2 Q 21.9 63.2 22.1 63.3 L 22.1 63.3 L 22.1 87.9 Q 22.3 90 24.2 91.4 Q 26.1 92.9 27.8 92.9 Q 29.5 92.9 30.5 91.8 Q 31.5 90.7 31.4 88.4 Q 31.3 86.1 31.3 63.4 L 31.3 63.4 L 45.3 63.9 Q 48.9 63.9 48.9 59.7 L 48.9 59.7 Q 48.9 56.6 47.1 55 Q 45.2 53.5 43.1 53.4 Q 41 53.2 39 53.2 L 39 53.2 L 31.6 53.4 Q 31.6 48.4 32.7 33.9 Q 33.7 19.4 34.3 15.1 Q 34.9 10.9 34.5 9.6 Q 34.2 8.3 33.2 7.9 L 33.2 7.9 Q 31.6 7.1 29 7.1 Q 26.4 7.1 25.9 10 L 25.9 10 Q 23.5 25.8 22.6 53.2 L 22.6 53.2 Q 21.5 53.1 14.3 53.1 Q 7.1 53.1 7.1 57.3 L 7.1 57.3 Q 7.1 63.3 13.9 63.3" fill="#e2e8f0" stroke="#64748b" stroke-width="1.2" stroke-linejoin="round"/>
</svg>
