<?xml version="1.0" encoding="UTF-8"?>
<svg xmlns="http://www.w3.org/2000/svg" viewBox="0 0 100 100" fill="none">
  <path d="M 8.6 85.7 Q 9.3 88.8 11.6 90.8 Q 13.9 92.9 16.3 92.9 Q 18.8 92.9 20.1 92 Q 21.4 91.1 21.7 90.4 Q 22 89.6 22.3 87.9 L 22.3 87.9 Q 21.3 73.9 21.3 62.8 Q 21.3 51.6 23.9 37.2 Q 26.6 22.9 29.8 22.9 L 29.8 22.9 Q 34.6 22.9 42.1 28.2 Q 49.5 33.6 52.7 39.5 L 52.7 39.5 Q 50.5 65.2 50.5 83.6 L 50.5 83.6 Q 50.5 87.3 52.9 90 Q 55.4 92.7 58.8 92.7 L 58.8 92.7 Q 64.3 92.7 64.3 85.2 L 64.3 85.2 Q 64.3 72.5 66.2 47.5 Q 68 22.5 70 15.7 L 70 15.7 Q 70.4 14.3 70.4 12.4 Q 70.4 10.5 67.9 8.8 Q 65.5 7.1 61.7 7.1 Q 57.9 7.1 56.6 11.4 L 56.6 11.4 Q 56.3 15 54.8 22.1 L 54.8 22.1 Q 42.3 9.1 29.6 9.1 L 29.6 9.1 Q 23.8 9.1 19.1 13.6 Q 14.5 18 11.8 25.7 L 11.8 25.7 Q 7.1 40.5 7.1 53.6 Q 7.1 66.6 8.6 85.7 L 8.6 85.7" fill="#e2e8f0" stroke="#64748b" stroke-width="1.2" stroke-linejoin="round"/>
</svg>
