<?xml version="1.0" encoding="UTF-8"?>
<svg xmlns="http://www.w3.org/2000/svg" viewBox="0 0 100 100" fill="none">
  <path d="M 69 92.9 L 69 92.9 Q 71.5 92.9 72.8 91.1 Q 74.1 89.4 74.1 87.4 L 74.1 87.4 L 73.9 85.6 Q 66.3 66.3 62.7 54.2 L 62.7 54.2 Q 60.3 45.7 59.1 41.5 Q 58 37.3 55.2 26.9 Q 52.5 16.4 51.6 13.3 L 51.6 13.3 Q 49.1 7.1 42.8 7.1 L 42.8 7.1 Q 39.7 7.1 38.4 11.1 L 38.4 11.1 Q 32.6 29.2 21.4 52 Q 10.2 74.8 8.7 78.1 Q 7.1 81.5 7.1 84.2 Q 7.1 86.9 9.6 89.4 Q 12 92 15.1 92 Q 18.2 92 20.3 88.7 L 20.3 88.7 Q 22.3 84.7 31.6 66.5 Q 41 48.2 44.8 37.7 L 44.8 37.7 Q 44.9 38.8 46 42.2 L 46 42.2 Q 55.2 74.2 61 88 L 61 88 Q 64.1 92.9 69 92.9" fill="#e2e8f0" stroke="#64748b" stroke-width="1.2" stroke-linejoin="round"/>
</svg>
