<?xml version="1.0" encoding="UTF-8"?>
<svg xmlns="http://www.w3.org/2000/svg" viewBox="0 0 100 100" fill="none">
  <path d="M 24.9 7.1 L 24.9 7.1 Q 18.7 7.1 12.9 31.5 Q 7.1 55.8 7.1 86.1 L 7.1 86.1 Q 7.1 89.2 9.8 90.9 Q 12.5 92.7 14.7 92.7 Q 16.9 92.7 18.2 91.3 Q 19.6 89.9 19.6 87.7 L 19.6 87.7 Q 19.6 59.1 29.4 32.7 L 29.4 32.7 Q 30.8 34.9 33.9 41.6 Q 37.1 48.3 39.8 51.4 Q 42.6 54.5 46.4 54.5 Q 50.3 54.5 54.5 48.8 Q 58.7 43.1 61.7 36.6 Q 64.8 30.1 65.1 29.7 L 65.1 29.7 Q 70.1 45.1 70.1 58.4 L 70.1 58.4 L 69 86.2 Q 68.8 89 71.6 90.9 Q 74.3 92.9 76.9 92.9 L 76.9 92.9 Q 82.2 92.9 82.2 72.1 L 82.2 72.1 L 82.2 62 Q 82.2 37.4 74.7 18.2 L 74.7 18.2 Q 70.6 7.1 64.6 7.1 L 64.6 7.1 Q 61.1 7.1 58.2 11.6 Q 55.2 16.1 51.6 24.4 Q 47.9 32.7 45.9 35.8 L 45.9 35.8 L 40.4 24.9 Q 37.2 18.5 35.6 15.7 Q 33.9 12.8 31 10 Q 28.1 7.1 24.9 7.1" fill="#e2e8f0" stroke="#64748b" stroke-width="1.2" stroke-linejoin="round"/>
</svg>
