<?xml version="1.0" encoding="UTF-8"?>
<svg xmlns="http://www.w3.org/2000/svg" viewBox="0 0 100 100" fill="none">
  <path d="M 27.4 89.4 L 27.4 89.4 L 42.4 63.1 Q 48.6 69.8 54.1 78.1 L 54.1 78.1 L 61.8 89.4 Q 64 92.5 67.2 92.5 Q 70.4 92.5 72.4 90.6 Q 74.4 88.7 74.4 86 Q 74.4 83.4 66.7 71.7 Q 59 60.1 50.3 49.2 L 50.3 49.2 Q 51.9 46.6 57.6 37.3 Q 63.3 28 70 19.6 L 70 19.6 Q 71.3 17.6 71.3 14.7 Q 71.3 11.9 69.1 9.5 Q 66.9 7.1 64.2 7.1 L 64.2 7.1 Q 59.6 7.1 52.3 17.3 Q 45 27.4 39.3 39.5 L 39.3 39.5 Q 33.8 32 28.6 23.8 Q 23.4 15.5 20.6 11.8 Q 17.7 8.1 14.4 8.1 Q 11 8.1 9.1 10.1 Q 7.1 12.1 7.1 15 L 7.1 15 Q 7.1 22.1 32.7 51 L 32.7 51 Q 29.6 57 21.4 69.8 Q 13.2 82.6 13.2 85.5 Q 13.2 88.5 15.6 90.7 Q 18.1 92.9 21.9 92.9 Q 25.6 92.9 27.4 89.4" fill="#e2e8f0" stroke="#64748b" stroke-width="1.2" stroke-linejoin="round"/>
</svg>
