<?xml version="1.0" encoding="UTF-8"?>
<svg xmlns="http://www.w3.org/2000/svg" viewBox="0 0 100 100" fill="none">
  <path d="M 44.9 92.9 L 44.9 92.9 Q 46.3 92.9 47.7 91.9 Q 49.1 90.9 49.1 89.6 L 49.1 89.6 Q 49.1 86.4 39.6 54.7 Q 30.2 22.9 25.6 10.1 L 25.6 10.1 Q 24.6 7.1 22.5 7.1 Q 20.4 7.1 19.2 8.6 Q 17.9 10.1 17.9 13 Q 17.9 15.9 21.7 26.9 Q 25.4 37.9 26.2 40.9 L 26.2 40.9 Q 23.4 45.5 7.4 87.6 L 7.4 87.6 Q 7.1 88.2 7.1 89.1 Q 7.1 90 8.5 91.4 Q 9.8 92.9 12.2 92.9 Q 14.5 92.9 15.9 90.5 L 15.9 90.5 Q 17.5 86.5 21.1 76.5 Q 24.6 66.6 26.6 62.1 Q 28.5 57.7 30.3 52.9 L 30.3 52.9 Q 31.9 58.1 35.6 73.2 Q 39.4 88.3 40 90.4 L 40 90.4 Q 40.4 92.9 44.9 92.9" fill="#e2e8f0" stroke="#64748b" stroke-width="1.2" stroke-linejoin="round"/>
</svg>
