<?xml version="1.0" encoding="UTF-8"?>
<svg xmlns="http://www.w3.org/2000/svg" viewBox="0 0 100 100" fill="none">
  <path d="M 42.5 78.9 L 42.5 78.9 L 15.9 76.5 Q 7.1 76.5 7.1 84.1 L 7.1 84.1 Q 7.1 92.1 16.3 92.7 L 16.3 92.7 Q 19 92.9 52.1 92.9 L 52.1 92.9 Q 59 92.9 65.9 89.1 L 65.9 89.1 Q 73.9 84.7 73.9 75 Q 73.9 65.3 60.5 53.8 L 60.5 53.8 Q 54.9 49 48.6 44.1 L 48.6 44.1 Q 28 28.5 28 24.4 L 28 24.4 Q 28 21.6 34.9 21.6 Q 41.9 21.6 47.8 22.5 Q 53.6 23.3 60.3 24.3 Q 67 25.4 68.7 25.4 L 68.7 25.4 Q 76.5 25.4 76.5 19.8 L 76.5 19.8 Q 76.5 7.1 38.6 7.1 L 38.6 7.1 Q 24.8 7.1 18.9 10.1 Q 13.1 13.1 11.2 20.7 L 11.2 20.7 Q 11 21.8 11 22.9 L 11 22.9 Q 11 28.2 17 35.6 L 17 35.6 Q 25.2 45.6 38.4 54.7 L 38.4 54.7 Q 53.4 65.2 55.9 69.4 L 55.9 69.4 Q 57.2 71.8 56.8 73.7 L 56.8 73.7 Q 55.7 78.9 42.5 78.9" fill="#e2e8f0" stroke="#64748b" stroke-width="1.2" stroke-linejoin="round"/>
</svg>
