<?xml version="1.0" encoding="UTF-8"?>
<svg xmlns="http://www.w3.org/2000/svg" viewBox="0 0 100 100" fill="none">
  <path d="M 62.4 50.1 L 62.4 50.1 Q 62.4 39.9 60.9 32 Q 59.4 24.1 56.1 18.5 Q 52.7 13 47.4 10.1 Q 42.1 7.1 34.7 7.1 L 34.7 7.1 Q 25.3 7.1 19.2 12.3 Q 13.1 17.4 10.1 27 Q 7.1 36.6 7.1 50.1 L 7.1 50.1 Q 7.1 63.6 9.9 73.1 Q 12.6 82.7 18.7 87.8 Q 24.8 92.9 34.7 92.9 L 34.7 92.9 Q 44 92.9 50.2 87.8 Q 56.4 82.7 59.4 73.1 Q 62.4 63.6 62.4 50.1 M 17.4 50.1 L 17.4 50.1 Q 17.4 38.6 19.1 31 Q 20.8 23.5 24.6 19.7 Q 28.4 15.9 34.7 15.9 L 34.7 15.9 Q 41 15.9 44.8 19.6 Q 48.5 23.4 50.3 31 Q 52 38.6 52 50.1 L 52 50.1 Q 52 61.5 50.3 69 Q 48.5 76.5 44.8 80.3 Q 41 84.1 34.7 84.1 L 34.7 84.1 Q 28.4 84.1 24.6 80.3 Q 20.8 76.5 19.1 69 Q 17.4 61.5 17.4 50.1" fill="#e2e8f0" stroke="#64748b" stroke-width="1.2" stroke-linejoin="round"/>
</svg>
