<?xml version="1.0" encoding="UTF-8"?>
<svg xmlns="http://www.w3.org/2000/svg" viewBox="0 0 100 100" fill="none">
  <path d="M 34.7 92.9 L 34.7 92.9 Q 42.1 92.9 47.7 90.6 Q 53.3 88.3 56.5 83.9 Q 59.7 79.4 59.7 72.9 L 59.7 72.9 Q 59.7 67.9 57.5 64.1 Q 55.4 60.4 51.8 57.5 Q 48.1 54.7 43.8 52.5 L 43.8 52.5 Q 48.9 50 53.2 46.9 Q 57.4 43.8 59.9 39.7 Q 62.4 35.6 62.4 29.9 L 62.4 29.9 Q 62.4 22.9 59 17.8 Q 55.6 12.7 49.5 9.9 Q 43.3 7.1 35.1 7.1 L 35.1 7.1 Q 26.1 7.1 19.8 9.8 Q 13.6 12.5 10.4 17.5 Q 7.1 22.4 7.1 29.6 L 7.1 29.6 Q 7.1 35.3 9.5 39.5 Q 11.9 43.7 15.9 46.7 Q 19.9 49.8 24.4 51.9 L 24.4 51.9 Q 20.3 54.2 17 57.2 Q 13.7 60.2 11.8 64 Q 9.8 67.9 9.8 73 L 9.8 73 Q 9.8 79.4 13.1 83.8 Q 16.4 88.2 22 90.5 Q 27.6 92.9 34.7 92.9 M 17.2 29.4 L 17.2 29.4 Q 17.2 23.4 21.5 19.3 Q 25.8 15.3 34.8 15.3 L 34.8 15.3 Q 43.3 15.3 47.8 19.3 Q 52.3 23.4 52.3 29.8 L 52.3 29.8 Q 52.3 33.9 50.2 37 Q 48 40.1 44.1 42.5 Q 40.2 45 34.8 47 L 34.8 47 L 33 47.7 Q 27.8 45.4 24.3 42.9 Q 20.8 40.3 19 37 Q 17.2 33.8 17.2 29.4 M 34.6 84.6 L 34.6 84.6 Q 28.2 84.6 24 81.5 Q 19.9 78.4 19.9 72.5 L 19.9 72.5 Q 19.9 68.2 21.9 65.3 Q 24 62.4 27.5 60.3 Q 31 58.3 35.2 56.4 L 35.2 56.4 Q 39.3 58.2 42.5 60.3 Q 45.7 62.4 47.6 65.4 Q 49.5 68.3 49.5 72.5 L 49.5 72.5 Q 49.5 78.4 45.4 81.5 Q 41.4 84.6 34.6 84.6" fill="#e2e8f0" stroke="#64748b" stroke-width="1.2" stroke-linejoin="round"/>
</svg>
