<?xml version="1.0" encoding="UTF-8"?>
<svg xmlns="http://www.w3.org/2000/svg" viewBox="0 0 100 100" fill="none">
  <path d="M 62 56.1 L 62 56.1 Q 62 48.9 61 41.9 Q 60 34.8 57.6 28.6 Q 55.1 22.3 50.8 17.5 Q 46.5 12.6 39.8 9.9 Q 33.2 7.1 23.7 7.1 L 23.7 7.1 Q 21.4 7.1 18.3 7.4 Q 15.2 7.7 13.2 8.3 L 13.2 8.3 L 13.2 17.1 Q 15.3 16.4 18.1 16 Q 20.9 15.6 23.5 15.6 L 23.5 15.6 Q 31.7 15.6 37 18.2 Q 42.3 20.9 45.4 25.5 Q 48.6 30.1 50 36.3 Q 51.4 42.4 51.6 49.2 L 51.6 49.2 L 50.9 49.2 Q 49.2 46.5 46.5 44.3 Q 43.8 42.1 40 40.8 Q 36.2 39.5 31.1 39.5 L 31.1 39.5 Q 24 39.5 18.5 42.5 Q 13.1 45.4 10.1 51.1 Q 7.1 56.7 7.1 64.7 L 7.1 64.7 Q 7.1 73.5 10.5 79.8 Q 13.8 86.1 19.8 89.5 Q 25.7 92.9 33.8 92.9 L 33.8 92.9 Q 39.7 92.9 44.9 90.6 Q 50 88.3 53.9 83.7 Q 57.7 79.2 59.9 72.3 Q 62 65.4 62 56.1 M 33.8 84.2 L 33.8 84.2 Q 26.5 84.2 21.9 79.4 Q 17.3 74.6 17.3 64.8 L 17.3 64.8 Q 17.3 56.8 21.2 52.2 Q 25.1 47.5 33.3 47.5 L 33.3 47.5 Q 38.9 47.5 43 49.8 Q 47.1 52.1 49.4 55.6 Q 51.6 59.1 51.6 62.8 L 51.6 62.8 Q 51.6 66.6 50.5 70.4 Q 49.4 74.2 47.2 77.3 Q 45 80.5 41.6 82.3 Q 38.2 84.2 33.8 84.2" fill="#e2e8f0" stroke="#64748b" stroke-width="1.2" stroke-linejoin="round"/>
</svg>
