<?xml version="1.0" encoding="UTF-8"?>
<svg xmlns="http://www.w3.org/2000/svg" viewBox="0 0 100 100" fill="none">
  <path d="M 63 16.6 L 63 7.1 L 7.1 7.1 L 7.1 15.8 L 29.3 38.2 Q 35.7 44.6 40.1 49.5 Q 44.4 54.5 46.7 59.3 Q 48.9 64.1 48.9 69.8 L 48.9 69.8 Q 48.9 76.8 44.8 80.4 Q 40.6 84 34 84 L 34 84 Q 27.9 84 23.2 81.8 Q 18.5 79.7 13.7 75.9 L 13.7 75.9 L 8.1 82.9 Q 11.4 85.8 15.4 88 Q 19.3 90.3 24 91.6 Q 28.7 92.9 34 92.9 L 34 92.9 Q 41.9 92.9 47.6 90.1 Q 53.3 87.4 56.5 82.4 Q 59.6 77.3 59.6 70.4 L 59.6 70.4 Q 59.6 63.7 56.9 57.9 Q 54.1 52.1 49.3 46.5 Q 44.4 40.9 37.9 34.5 L 37.9 34.5 L 20.3 17.1 L 20.3 16.6 L 63 16.6" fill="#e2e8f0" stroke="#64748b" stroke-width="1.2" stroke-linejoin="round"/>
</svg>
