<?xml version="1.0" encoding="UTF-8"?>
<svg xmlns="http://www.w3.org/2000/svg" viewBox="0 0 100 100" fill="none">
  <path d="M 7.1 43.9 L 7.1 43.9 Q 7.1 51.2 8.1 58.2 Q 9.1 65.2 11.6 71.4 Q 14 77.7 18.4 82.5 Q 22.7 87.4 29.3 90.1 Q 35.9 92.9 45.3 92.9 L 45.3 92.9 Q 47.8 92.9 50.8 92.6 Q 53.7 92.4 55.6 91.8 L 55.6 91.8 L 55.6 83 Q 53.5 83.7 50.9 84.1 Q 48.2 84.4 45.6 84.4 L 45.6 84.4 Q 37.5 84.4 32.1 81.8 Q 26.8 79.1 23.7 74.4 Q 20.6 69.7 19.2 63.7 Q 17.8 57.6 17.4 50.7 L 17.4 50.7 L 18.1 50.7 Q 19.9 53.5 22.6 55.7 Q 25.2 57.9 29 59.2 Q 32.8 60.5 37.9 60.5 L 37.9 60.5 Q 45.1 60.5 50.5 57.5 Q 56 54.6 59 48.9 Q 62 43.2 62 35.2 L 62 35.2 Q 62 26.5 58.8 20.2 Q 55.5 13.9 49.6 10.5 Q 43.7 7.1 35.5 7.1 L 35.5 7.1 Q 29.6 7.1 24.4 9.4 Q 19.3 11.6 15.4 16.1 Q 11.5 20.7 9.3 27.6 Q 7.1 34.6 7.1 43.9 M 35.4 15.8 L 35.4 15.8 Q 42.8 15.8 47.3 20.5 Q 51.9 25.2 51.9 35.2 L 51.9 35.2 Q 51.9 43.1 47.8 47.8 Q 43.8 52.5 35.8 52.5 L 35.8 52.5 Q 30.3 52.5 26.2 50.2 Q 22.1 47.9 19.8 44.4 Q 17.5 40.9 17.5 37.2 L 17.5 37.2 Q 17.5 33.3 18.6 29.6 Q 19.8 25.8 22 22.7 Q 24.3 19.5 27.6 17.7 Q 31 15.8 35.4 15.8" fill="#e2e8f0" stroke="#64748b" stroke-width="1.2" stroke-linejoin="round"/>
</svg>
