<?xml version="1.0" encoding="UTF-8"?>
<svg xmlns="http://www.w3.org/2000/svg" viewBox="0 0 100 100" fill="none">
  <path d="M 32.2 60.2 L 32.2 60.2 Q 40.9 60.2 47.3 57.2 Q 53.7 54.3 57.2 48.8 Q 60.7 43.3 60.7 35.3 L 60.7 35.3 Q 60.7 26.6 56.9 20.2 Q 53.1 13.9 46 10.5 Q 39 7.1 29 7.1 L 29 7.1 Q 22.5 7.1 16.8 8.3 Q 11 9.5 7.1 11.8 L 7.1 11.8 L 7.1 21.6 Q 11.4 19 17.5 17.5 Q 23.6 16 29.2 16 L 29.2 16 Q 35.4 16 40.1 18 Q 44.8 19.9 47.4 24 Q 50 28.1 50 34.3 L 50 34.3 Q 50 42.5 44.9 47 Q 39.8 51.4 28.8 51.4 L 28.8 51.4 Q 25.5 51.4 21.2 50.8 Q 17 50.2 14.4 49.6 L 14.4 49.6 L 9.2 53 L 12.4 92.9 L 54.7 92.9 L 54.7 83.4 L 21.2 83.4 L 19.2 58.9 Q 21.2 59.2 24.7 59.7 Q 28.1 60.2 32.2 60.2" fill="#e2e8f0" stroke="#64748b" stroke-width="1.2" stroke-linejoin="round"/>
</svg>
