<?xml version="1.0" encoding="UTF-8"?>
<svg xmlns="http://www.w3.org/2000/svg" viewBox="0 0 100 100" fill="none">
  <path d="M 70.5 35.9 L 70.5 26.5 L 58.1 26.5 L 58.1 7.1 L 48 7.1 L 48 26.5 L 7.1 26.5 L 7.1 35.4 L 47.3 92.9 L 58.1 92.9 L 58.1 35.9 L 70.5 35.9 M 48 35.9 L 48 62.8 Q 48 65.9 48 68.4 Q 48.1 71 48.2 73.3 Q 48.3 75.5 48.4 77.6 Q 48.4 79.7 48.6 81.6 L 48.6 81.6 L 48.1 81.6 Q 47.1 79.4 45.7 76.7 Q 44.3 74.1 43 72.3 L 43 72.3 L 17.4 35.9 L 48 35.9" fill="#e2e8f0" stroke="#64748b" stroke-width="1.2" stroke-linejoin="round"/>
</svg>
