<?xml version="1.0" encoding="UTF-8"?>
<svg xmlns="http://www.w3.org/2000/svg" viewBox="0 0 100 100" fill="none">
  <path d="M 59.5 72.2 L 59.5 72.2 Q 59.5 66.6 57.4 62.5 Q 55.3 58.4 51.3 55.8 Q 47.4 53.3 42.2 52.2 L 42.2 52.2 L 42.2 51.8 Q 52.2 50.6 57.1 45.4 Q 62 40.3 62 32 L 62 32 Q 62 24.8 58.6 19.1 Q 55.3 13.4 48.2 10.3 Q 41.1 7.1 30 7.1 L 30 7.1 Q 23.5 7.1 17.9 8.1 Q 12.3 9.1 7.1 11.7 L 7.1 11.7 L 7.1 21.3 Q 12.4 18.7 18.5 17.2 Q 24.5 15.8 30.1 15.8 L 30.1 15.8 Q 41.4 15.8 46.3 20.2 Q 51.3 24.5 51.3 32.2 L 51.3 32.2 Q 51.3 37.5 48.5 40.7 Q 45.8 43.9 40.5 45.4 Q 35.3 47 27.9 47 L 27.9 47 L 19.9 47 L 19.9 55.7 L 28 55.7 Q 34.9 55.7 39.5 57.7 Q 44.2 59.7 46.6 63.3 Q 48.9 66.8 48.9 71.5 L 48.9 71.5 Q 48.9 77.6 44.9 80.9 Q 40.8 84.2 33.8 84.2 L 33.8 84.2 Q 29.3 84.2 25.7 83.3 Q 22.1 82.5 19 80.9 Q 15.9 79.3 12.7 77.2 L 12.7 77.2 L 7.6 84.2 Q 12 87.7 18.6 90.3 Q 25.2 92.9 33.7 92.9 L 33.7 92.9 Q 46.7 92.9 53.1 87 Q 59.5 81.2 59.5 72.2" fill="#e2e8f0" stroke="#64748b" stroke-width="1.2" stroke-linejoin="round"/>
</svg>
